/* XPM */
static char * desktop_xpm[] = {
"32 32 339 2",
"  	c None",
". 	c #434D4F",
"+ 	c #3F3F3F",
"@ 	c #3E3E3E",
"# 	c #424A4C",
"$ 	c #363E40",
"% 	c #4C4C4E",
"& 	c #6D6D6D",
"* 	c #6F6F6F",
"= 	c #4C4C4C",
"- 	c #353F41",
"; 	c #232323",
"> 	c #686868",
", 	c #313131",
"' 	c #2C2C2C",
") 	c #676767",
"! 	c #131313",
"~ 	c #656565",
"{ 	c #282828",
"] 	c #050505",
"^ 	c #484848",
"/ 	c #4D9DA9",
"( 	c #408FBC",
"_ 	c #0068A4",
": 	c #0069A6",
"< 	c #066DA8",
"[ 	c #096FA9",
"} 	c #0E75AA",
"| 	c #1275AE",
"1 	c #1677AE",
"2 	c #1A7CAE",
"3 	c #1D7BB1",
"4 	c #217CB1",
"5 	c #257FB3",
"6 	c #2681B6",
"7 	c #2884B4",
"8 	c #2985B5",
"9 	c #2A86B6",
"0 	c #2A8BB8",
"a 	c #2B8BB7",
"b 	c #2B87B7",
"c 	c #2A89B6",
"d 	c #2987B7",
"e 	c #2886B6",
"f 	c #2680B4",
"g 	c #5A9EC6",
"h 	c #4A97A8",
"i 	c #3B95C9",
"j 	c #0074B6",
"k 	c #0076BA",
"l 	c #0678BA",
"m 	c #0C7CBC",
"n 	c #1180BF",
"o 	c #1582C1",
"p 	c #1A85C2",
"q 	c #1F89C5",
"r 	c #238BC7",
"s 	c #298DC7",
"t 	c #2B93C9",
"u 	c #2C95CC",
"v 	c #2F99CB",
"w 	c #319CCD",
"x 	c #329CCE",
"y 	c #339DCF",
"z 	c #369ECE",
"A 	c #36A3D0",
"B 	c #359FD1",
"C 	c #379ECD",
"D 	c #359DCD",
"E 	c #309ACC",
"F 	c #2E96CC",
"G 	c #5FADD5",
"H 	c #4596A7",
"I 	c #3893C8",
"J 	c #0075B8",
"K 	c #0B80BD",
"L 	c #1683C2",
"M 	c #1B86C3",
"N 	c #208CC4",
"O 	c #268CC6",
"P 	c #2992C9",
"Q 	c #2D94C9",
"R 	c #36A4D2",
"S 	c #3AA5D2",
"T 	c #3BA6D3",
"U 	c #3BAAD3",
"V 	c #3BA8D5",
"W 	c #3CA6D2",
"X 	c #38A5D2",
"Y 	c #38A3D0",
"Z 	c #5FB1D7",
"` 	c #4092A6",
" .	c #3592C7",
"..	c #037CBB",
"+.	c #097BBD",
"@.	c #0F7FBF",
"#.	c #2289C4",
"$.	c #268FC6",
"%.	c #2B8FC9",
"&.	c #2E95CA",
"*.	c #3CABD4",
"=.	c #3EADD6",
"-.	c #3FAED7",
";.	c #3FB1D7",
">.	c #40B2D8",
",.	c #3FAFD9",
"'.	c #3FACD5",
").	c #3DACD5",
"!.	c #3BABD5",
"~.	c #60B3DA",
"{.	c #3C8FA4",
"].	c #3190C7",
"^.	c #0377B9",
"/.	c #097ABB",
"(.	c #0E7EBE",
"_.	c #1481C0",
":.	c #2088C4",
"<.	c #3CACD6",
"[.	c #3FB0D5",
"}.	c #44B3D8",
"|.	c #43B5DB",
"1.	c #46B5DA",
"2.	c #44BADC",
"3.	c #44B6DC",
"4.	c #43B4D9",
"5.	c #41B3D9",
"6.	c #60B7DC",
"7.	c #378AA5",
"8.	c #2E8FC6",
"9.	c #0579BB",
"0.	c #1281C0",
"a.	c #1884C2",
"b.	c #1E87C4",
"c.	c #258BC5",
"d.	c #298FC9",
"e.	c #48BBDC",
"f.	c #48C0DE",
"g.	c #4ABDDE",
"h.	c #4BC1DF",
"i.	c #4BBEDF",
"j.	c #49BDDF",
"k.	c #48BCDE",
"l.	c #47BADB",
"m.	c #60BADC",
"n.	c #3288A4",
"o.	c #2D8EC5",
"p.	c #2189C5",
"q.	c #2C94CA",
"r.	c #3097CC",
"s.	c #48B7DC",
"t.	c #4CC2E0",
"u.	c #4EC3E0",
"v.	c #4EC8E2",
"w.	c #4FC9E3",
"x.	c #4FC5E3",
"y.	c #4EC4E2",
"z.	c #4EC1DE",
"A.	c #61BBDD",
"B.	c #2E85A2",
"C.	c #2B8DC5",
"D.	c #0B7CBD",
"E.	c #1184BF",
"F.	c #1883C0",
"G.	c #44B5DA",
"H.	c #4DC3E1",
"I.	c #51CBE5",
"J.	c #52CFE6",
"K.	c #53D0E7",
"L.	c #51CEE5",
"M.	c #50CAE4",
"N.	c #5FBFDF",
"O.	c #2983A1",
"P.	c #298CC5",
"Q.	c #0B7DBF",
"R.	c #1380BF",
"S.	c #1984C1",
"T.	c #2C90CA",
"U.	c #2F9BCD",
"V.	c #47B6DB",
"W.	c #54D1E8",
"X.	c #56D7EA",
"Y.	c #57D8EB",
"Z.	c #57DBEB",
"`.	c #56DAEA",
" +	c #55D6E9",
".+	c #48B9DE",
"++	c #60C0E0",
"@+	c #247EA0",
"#+	c #0D7DBD",
"$+	c #37A1CD",
"%+	c #54D5E8",
"&+	c #59E0ED",
"*+	c #5AE5EE",
"=+	c #5CE5EE",
"-+	c #5AE1EE",
";+	c #58DCEC",
">+	c #217D9F",
",+	c #2589C3",
"'+	c #3198CD",
")+	c #58E0EC",
"!+	c #5DEBF1",
"~+	c #5FEDF3",
"{+	c #5DE6EF",
"]+	c #5CC2E0",
"^+	c #1B7B9F",
"/+	c #2184C3",
"(+	c #2F9CCF",
"_+	c #5DE8F1",
":+	c #53D4E7",
"<+	c #50CDE4",
"[+	c #4EC6E0",
"}+	c #5AC0DE",
"|+	c #17769D",
"1+	c #1C88C0",
"2+	c #2790C7",
"3+	c #54BDE0",
"4+	c #12759E",
"5+	c #2C93C8",
"6+	c #2F96CB",
"7+	c #53BBDD",
"8+	c #0E6F9C",
"9+	c #0A7BBC",
"0+	c #459ECD",
"a+	c #4AA1CE",
"b+	c #50A3D2",
"c+	c #56A5D2",
"d+	c #58AAD4",
"e+	c #5BAFD7",
"f+	c #5DB4D9",
"g+	c #64BBDC",
"h+	c #66BFE0",
"i+	c #69C3E1",
"j+	c #6CC5E2",
"k+	c #6EC9E4",
"l+	c #6FCCE7",
"m+	c #72D0E8",
"n+	c #75D2E9",
"o+	c #73D6EB",
"p+	c #76D8EA",
"q+	c #75D4E9",
"r+	c #75D0E7",
"s+	c #71CFE7",
"t+	c #6FCAE5",
"u+	c #4EB7DA",
"v+	c #096D9B",
"w+	c #0F7EBD",
"x+	c #0779BB",
"y+	c #449ACC",
"z+	c #0D4261",
"A+	c #0F4663",
"B+	c #134663",
"C+	c #154865",
"D+	c #174C67",
"E+	c #195067",
"F+	c #1B5269",
"G+	c #1C536A",
"H+	c #1E546A",
"I+	c #1F586B",
"J+	c #215A6D",
"K+	c #225D6E",
"L+	c #235E6F",
"M+	c #255F6F",
"N+	c #265F70",
"O+	c #276071",
"P+	c #276471",
"Q+	c #266370",
"R+	c #49B0D7",
"S+	c #056A99",
"T+	c #0577B9",
"U+	c #4199CB",
"V+	c #0B4461",
"W+	c #1C526E",
"X+	c #1E5470",
"Y+	c #215471",
"Z+	c #245772",
"`+	c #255A73",
" @	c #275B73",
".@	c #285F76",
"+@	c #286178",
"@@	c #2B6177",
"#@	c #2C6578",
"$@	c #2D6679",
"%@	c #2E697A",
"&@	c #2F6A7B",
"*@	c #316B7B",
"=@	c #306B7C",
"-@	c #316C7D",
";@	c #235B6D",
">@	c #69C0E1",
",@	c #42AAD6",
"'@	c #006898",
")@	c #0378BB",
"!@	c #0176B9",
"~@	c #4097C8",
"{@	c #0A4160",
"]@	c #194E6D",
"^@	c #1D516F",
"/@	c #1F526F",
"(@	c #285D76",
"_@	c #2A6178",
":@	c #2B6477",
"<@	c #2D6879",
"[@	c #2E677A",
"}@	c #1E586E",
"|@	c #65BEDF",
"1@	c #006092",
"2@	c #0277BA",
"3@	c #3998C9",
"4@	c #073F5F",
"5@	c #17506D",
"6@	c #1A4F6E",
"7@	c #1D536F",
"8@	c #265B74",
"9@	c #275E75",
"0@	c #2A6076",
"a@	c #2C6278",
"b@	c #2B6479",
"c@	c #1D566B",
"d@	c #63B8DB",
"e@	c #006294",
"f@	c #005F90",
"g@	c #006FA8",
"h@	c #0072B4",
"i@	c #3593C9",
"j@	c #053D5D",
"k@	c #144C6C",
"l@	c #215671",
"m@	c #235671",
"n@	c #245972",
"o@	c #275C75",
"p@	c #285C74",
"q@	c #295F75",
"r@	c #295D75",
"s@	c #1981B7",
"t@	c #00598C",
"u@	c #005A88",
"v@	c #287FAC",
"w@	c #002D44",
"x@	c #005E8E",
"                                                                ",
"                                                                ",
"                                                                ",
"                                                                ",
"  . + @ @ @ @ @ @ @ @ @ @ @ @ @ @ @ @ @ @ @ @ @ @ @ @ @ @ + #   ",
"$ % & * * * * * * * * * * * * * * * * * * * * * * * * * * & = - ",
"; > , ' ' ' ' ' ' ' ' ' ' ' ' ' ' ' ' ' ' ' ' ' ' ' ' ' ' , ) ; ",
"! ~ { { { { { { { { { { { { { { { { { { { { { { { { { { { { ~ ! ",
"] ^ ] ] ] ] ] ] ] ] ] ] ] ] ] ] ] ] ] ] ] ] ] ] ] ] ] ] ] ] ^ ] ",
"/ ( _ _ _ : < [ } | 1 2 3 4 5 6 7 8 9 0 a a a a b c d e 7 f g / ",
"h i j j k l m n o p q r s t u v w x y z A B B A z C D w E F G h ",
"H I j J l K n L M N O P Q v w y A R S T U V V W T S X Y z x Z H ",
"`  .j ..+.@.o M #.$.%.&.E y B X T *.=.-.;.>.>.,.-.'.).!.S Y ~.` ",
"{.].^./.(._.p :.O %.&.w C Y T <.[.>.}.|.1.2.2.3.|.4.5.;.=.V 6.{.",
"7.8.9.m 0.a.b.c.d.&.w C X U =.>.4.3.e.f.g.h.h.i.j.k.l.|.5.-.m.7.",
"n.o./.(.o M p.s q.r.y Y U =.>.|.s.j.t.u.v.w.w.x.y.z.h.k.2.}.A.n.",
"B.C.D.E.F.b.c.%.&.w A S <.>.G.s.g.H.w.I.J.K.K.J.L.M.y.t.k.2.N.B.",
"O.P.Q.R.S.:.$.T.U.y R W [.}.V.j.H.w.J.W.X.Y.Z.`. +K.I.v.h..+++O.",
"@+c.#+_.p p.s Q E $+X *.;.G.e.h.v.L.%+`.&+*+=+-+;+ +K.M.u.j.N.@+",
">+,+#+_.M p.s u '+z S <.>.|.k.z.w.J. +)+=+!+~+{+&+`.W.I.y.i.]+>+",
"^+/+#+_.M p.s u (+z S <.>.|.k.t.w.J. +;+*+_+!+{+&+`.:+<+[+g.}+^+",
"|+1+#+R.p #.2+q.E y X !.;.4.e.h.y.I.K.X.;+&+&+&+Z.%+J.w.z.j.3+|+",
"4+F.m 0.S.q O 5+6+x Y U '.5.3.f.z.x.I.K.%+ +X. +W.J.M.[+h.e.7+4+",
"8+R.9+n 0+a+b+c+d+e+f+6.g+h+i+j+k+l+m+n+o+o+p+o+q+r+s+t+e.1.u+8+",
"v+w+x+#+y+z+A+B+C+D+E+F+G+H+I+J+K+L+M+N+O+P+P+O+Q+N+M+j+|.5.R+v+",
"S+l T+D.U+V+W+X+Y+Z+`+ @.@+@@@#@$@%@&@*@=@-@-@=@=@&@;@>@>.=.,@S+",
"'@)@!@x+~@{@]@^@/@Y+Z+`+ @(@+@_@:@#@$@<@[@%@%@[@[@$@}@|@*.T W '@",
"1@J j 2@3@4@5@6@7@/@Y+Z+`+8@9@.@+@0@@@:@a@a@#@a@b@@@c@d@X A y e@",
"f@g@h@j i@j@k@5@6@^@/@l@m@n@`+8@o@p@.@q@+@+@+@+@+@r@F+f+D w s@e@",
"  t@u@u@v@w@w@w@w@w@w@w@w@w@w@w@w@w@w@w@w@w@w@w@w@w@w@v@u@u@x@  ",
"                                                                ",
"                                                                "};
