/* XPM */
static char * desktop_xpm[] = {
"22 22 239 2",
"  	c None",
". 	c #404344",
"+ 	c #3E3E3E",
"@ 	c #404443",
"# 	c #5A5A5A",
"$ 	c #737373",
"% 	c #747474",
"& 	c #5B5B5B",
"* 	c #6C6C6C",
"= 	c #292929",
"- 	c #4F4F4F",
"; 	c #050505",
"> 	c #4691BC",
", 	c #0068A4",
"' 	c #036BA7",
") 	c #076FAB",
"! 	c #0F72AB",
"~ 	c #1376AF",
"{ 	c #1A7CAE",
"] 	c #1F7CB1",
"^ 	c #2382B3",
"/ 	c #2685B6",
"( 	c #2886B6",
"_ 	c #2A89B6",
": 	c #2A8CBA",
"< 	c #2C8CB8",
"[ 	c #2D8CB9",
"} 	c #2E8CB8",
"| 	c #2B8BB7",
"1 	c #298AB7",
"2 	c #2884B4",
"3 	c #62A5C8",
"4 	c #4098CA",
"5 	c #0074B6",
"6 	c #0277BA",
"7 	c #0B7CBD",
"8 	c #127FBE",
"9 	c #1984C1",
"0 	c #1F89C5",
"a 	c #268CC6",
"b 	c #2B93C9",
"c 	c #2E96CC",
"d 	c #319CCD",
"e 	c #339DCF",
"f 	c #359FD1",
"g 	c #38A5D2",
"h 	c #3AA5D2",
"i 	c #38A3D0",
"j 	c #369ECE",
"k 	c #329CCE",
"l 	c #65B1D9",
"m 	c #3B95C9",
"n 	c #0176B9",
"o 	c #0A7BBC",
"p 	c #1184BF",
"q 	c #2088C4",
"r 	c #278DC7",
"s 	c #2C94CA",
"t 	c #309ACC",
"u 	c #3BA6D3",
"v 	c #3CABD4",
"w 	c #3FACD5",
"x 	c #3FAED7",
"y 	c #3FB1D7",
"z 	c #3FB0D5",
"A 	c #3DACD5",
"B 	c #3BA8D5",
"C 	c #66B8DA",
"D 	c #3593C9",
"E 	c #0678BA",
"F 	c #0E7EBE",
"G 	c #1683C2",
"H 	c #1F87C3",
"I 	c #268FC6",
"J 	c #3CACD6",
"K 	c #44B3D8",
"L 	c #46B5DA",
"M 	c #47B6DB",
"N 	c #46BBDC",
"O 	c #44BADC",
"P 	c #44B5DA",
"Q 	c #40B2D8",
"R 	c #65BADD",
"S 	c #3592C7",
"T 	c #1380BF",
"U 	c #1B86C3",
"V 	c #238BC7",
"W 	c #3097CC",
"X 	c #37A1CD",
"Y 	c #43B2D7",
"Z 	c #48BCDE",
"` 	c #4BC1DF",
" .	c #4EC1DE",
"..	c #4EC3E0",
"+.	c #4CC2E0",
"@.	c #49C1DF",
"#.	c #48B7DC",
"$.	c #43B4D9",
"%.	c #66BFE0",
"&.	c #3291C8",
"*.	c #0D7DBD",
"=.	c #1F8BC3",
"-.	c #2790C7",
";.	c #2E95CA",
">.	c #50CAE4",
",.	c #51CEE5",
"'.	c #52CFE6",
").	c #51CBE5",
"!.	c #4FC5E3",
"~.	c #47BBDD",
"{.	c #65C2E1",
"].	c #308FC6",
"^.	c #1083BE",
"/.	c #2189C5",
"(.	c #2B92C7",
"_.	c #2F9BCD",
":.	c #54D1E8",
"<.	c #56DAEA",
"[.	c #57DFEB",
"}.	c #57DBEB",
"|.	c #55D6E9",
"1.	c #4FC9E3",
"2.	c #4BBEDF",
"3.	c #65C5E1",
"4.	c #2C8DC4",
"5.	c #1A85C2",
"6.	c #36A3D0",
"7.	c #40AFD8",
"8.	c #53D0E7",
"9.	c #5AE1EE",
"0.	c #5DE9EF",
"a.	c #5DE6EF",
"b.	c #58E0EC",
"c.	c #63C5E1",
"d.	c #278AC3",
"e.	c #5CE5EE",
"f.	c #5EECF2",
"g.	c #5DE8F1",
"h.	c #59E0ED",
"i.	c #5EC4E2",
"j.	c #2188C3",
"k.	c #1180BF",
"l.	c #238AC5",
"m.	c #2B8FC9",
"n.	c #43B5DB",
"o.	c #49BDDF",
"p.	c #4EC4E2",
"q.	c #5CBFE0",
"r.	c #1C84C0",
"s.	c #459ECD",
"t.	c #4CA3D0",
"u.	c #53A4D3",
"v.	c #58ABD6",
"w.	c #5CB1D8",
"x.	c #60B6DA",
"y.	c #65BCDD",
"z.	c #67C3E1",
"A.	c #6CC5E2",
"B.	c #6FCAE5",
"C.	c #72D0E8",
"D.	c #73D6EB",
"E.	c #77DCEB",
"F.	c #78DDEC",
"G.	c #76D8EA",
"H.	c #75D2E9",
"I.	c #6FD2E7",
"J.	c #49BCDD",
"K.	c #55BBDD",
"L.	c #0C7CBC",
"M.	c #449ACC",
"N.	c #0F4561",
"O.	c #124864",
"P.	c #154A65",
"Q.	c #174C67",
"R.	c #1B4F67",
"S.	c #1D5369",
"T.	c #1F556B",
"U.	c #215A6D",
"V.	c #225D6E",
"W.	c #255F6F",
"X.	c #266370",
"Y.	c #276471",
"Z.	c #286572",
"`.	c #266372",
" +	c #265F70",
".+	c #6DC8E3",
"++	c #4EB7DA",
"@+	c #0779BB",
"#+	c #3F9BCB",
"$+	c #0C4160",
"%+	c #1D536F",
"&+	c #215671",
"*+	c #245772",
"=+	c #265B74",
"-+	c #285F76",
";+	c #2A6076",
">+	c #2C6278",
",+	c #2D6679",
"'+	c #2E697A",
")+	c #2F6A7B",
"!+	c #306B7C",
"~+	c #306D7C",
"{+	c #316B7B",
"]+	c #69C3E1",
"^+	c #45AFD7",
"/+	c #3D96C9",
"(+	c #0A4160",
"_+	c #1A4F6E",
":+	c #1E5470",
"<+	c #215471",
"[+	c #245972",
"}+	c #285C74",
"|+	c #286178",
"1+	c #2A6378",
"2+	c #2C657A",
"3+	c #1F586B",
"4+	c #3DA7D3",
"5+	c #0073AE",
"6+	c #0075B8",
"7+	c #3994C9",
"8+	c #19526F",
"9+	c #1C5170",
"0+	c #205672",
"a+	c #265974",
"b+	c #275C75",
"c+	c #295D75",
"d+	c #2A5E76",
"e+	c #2B6177",
"f+	c #2B6479",
"g+	c #2C637A",
"h+	c #1D556D",
"i+	c #62B4DA",
"j+	c #379FCF",
"k+	c #248DBE",
"l+	c #005B8A",
"m+	c #005A88",
"n+	c #287FAC",
"o+	c #002D44",
"p+	c #00598C",
"                                            ",
". + + + + + + + + + + + + + + + + + + + + @ ",
"# $ % % % % % % % % % % % % % % % % % % $ & ",
"* = = = = = = = = = = = = = = = = = = = = * ",
"- ; ; ; ; ; ; ; ; ; ; ; ; ; ; ; ; ; ; ; ; - ",
"> , , ' ) ! ~ { ] ^ / ( _ : < [ } < | 1 2 3 ",
"4 5 6 7 8 9 0 a b c d e f g h h h g i j k l ",
"m n o p 9 q r s t e i u v w x y y z A B h C ",
"D E F G H I s t j h J y K L M N N O P Q w R ",
"S 7 T U V b W X h A Y L Z `  .....+.@.#.$.%.",
"&.*.G =.-.;.k g J Q O @...>.,.'.'.).!.+.~.{.",
"].^.9 /.(._.j u x P Z ..).:.<.[.}.|.'.1.2.3.",
"4.p 5.V b t 6.B 7.O ` 1.8.<.9.0.a.b.|.)...c.",
"d.p 5.V b t f B Q M ` 1.8.}.e.f.g.h.|.,...i.",
"j.k.9 l.m.W j u x n.o.p.,.|.[.h.b.<.8.>.+.q.",
"r.F s.t.u.v.w.x.y.z.A.B.C.D.E.F.F.G.H.I.J.K.",
"T L.M.N.O.P.Q.R.S.T.U.V.W.X.Y.Z.`.Y. +.+L ++",
"7 @+#+$+%+&+*+=+-+;+>+,+'+)+!+~+!+{+V.]+y ^+",
"E 6 /+(+_+:+<+[+=+}+|+1+>+2+,+,+,+,+3+y.u 4+",
"5+6+7+(+8+9+0+*+a+b+c+d+e+f+>+g+>+>+h+i+j+k+",
"l+m+n+o+o+o+o+o+o+o+o+o+o+o+o+o+o+o+o+n+m+p+",
"                                            "};
