/* XPM */
static char * desktop_xpm[] = {
"48 48 482 2",
"  	c None",
". 	c #4C6A6E",
"+ 	c #414B4B",
"@ 	c #3F3F41",
"# 	c #3E3E3E",
"$ 	c #414647",
"% 	c #4B6163",
"& 	c #445C60",
"* 	c #464B4C",
"= 	c #757575",
"- 	c #818181",
"; 	c #828282",
"> 	c #747474",
", 	c #464A49",
"' 	c #435D5F",
") 	c #2F3435",
"! 	c #717171",
"~ 	c #484848",
"{ 	c #2F2F2F",
"] 	c #2E2E2E",
"^ 	c #494949",
"/ 	c #707070",
"( 	c #222222",
"_ 	c #7B7B7B",
": 	c #2C2C2C",
"< 	c #181818",
"[ 	c #767676",
"} 	c #292929",
"| 	c #0E0E0E",
"1 	c #727272",
"2 	c #272727",
"3 	c #050505",
"4 	c #5A5A5A",
"5 	c #488F9C",
"6 	c #5390B3",
"7 	c #00598C",
"8 	c #015D91",
"9 	c #035E93",
"0 	c #066292",
"a 	c #086494",
"b 	c #0D6293",
"c 	c #0E6496",
"d 	c #0F6997",
"e 	c #126996",
"f 	c #166A96",
"g 	c #166A9A",
"h 	c #196A99",
"i 	c #1B6C9B",
"j 	c #1D6D9B",
"k 	c #1E709A",
"l 	c #21719B",
"m 	c #22729C",
"n 	c #23719D",
"o 	c #24709C",
"p 	c #23729F",
"q 	c #23759F",
"r 	c #25759F",
"s 	c #25789F",
"t 	c #21739D",
"u 	c #2175A1",
"v 	c #2076A8",
"w 	c #69A1C5",
"x 	c #4F9BA9",
"y 	c #4C9AA8",
"z 	c #509CC8",
"A 	c #006DAC",
"B 	c #0370AF",
"C 	c #0572B1",
"D 	c #0875B4",
"E 	c #0B77B5",
"F 	c #0E79B6",
"G 	c #127AB6",
"H 	c #167FB6",
"I 	c #1A7EB8",
"J 	c #1B7FB9",
"K 	c #1E81BA",
"L 	c #2083BC",
"M 	c #2385BD",
"N 	c #2786BD",
"O 	c #278BBF",
"P 	c #2A8CBE",
"Q 	c #2B8CBF",
"R 	c #2C8EC0",
"S 	c #2D8FC1",
"T 	c #2E8FC2",
"U 	c #2E93C2",
"V 	c #2F91C3",
"W 	c #2F94C3",
"X 	c #2E94C4",
"Y 	c #2B8EC1",
"Z 	c #2A89C0",
"` 	c #2889C0",
" .	c #6DACD1",
"..	c #4897A8",
"+.	c #4E9ECC",
"@.	c #0074B6",
"#.	c #0176B9",
"$.	c #0678BA",
"%.	c #0A7BBC",
"&.	c #0D7DBD",
"*.	c #1180BF",
"=.	c #1481C0",
"-.	c #1883C0",
";.	c #1B86C3",
">.	c #1E87C4",
",.	c #2189C5",
"'.	c #258BC5",
").	c #278DC7",
"!.	c #298FC9",
"~.	c #2C90CA",
"{.	c #2C95CC",
"].	c #2E9ACC",
"^.	c #3097CC",
"/.	c #319CCD",
"(.	c #329CCE",
"_.	c #359DCD",
":.	c #339DCF",
"<.	c #369ECE",
"[.	c #36A3D0",
"}.	c #359FD1",
"|.	c #35A3D1",
"1.	c #38A3D0",
"2.	c #379ECD",
"3.	c #309ACC",
"4.	c #2F96CB",
"5.	c #6EB4D8",
"6.	c #4697A8",
"7.	c #4C9DCC",
"8.	c #0579BB",
"9.	c #1884C2",
"0.	c #1F87C3",
"a.	c #238AC5",
"b.	c #268CC6",
"c.	c #2891C8",
"d.	c #2B93C9",
"e.	c #2D94C9",
"f.	c #38A5D2",
"g.	c #3AA5D2",
"h.	c #3BA6D3",
"i.	c #37A1CD",
"j.	c #6EB8DA",
"k.	c #4294A6",
"l.	c #489CCC",
"m.	c #0075B8",
"n.	c #0577B9",
"o.	c #087ABC",
"p.	c #0B7DBF",
"q.	c #1F89C5",
"r.	c #228AC6",
"s.	c #268FC6",
"t.	c #2E95CA",
"u.	c #2F9BCD",
"v.	c #3CA6D2",
"w.	c #3BABD5",
"x.	c #3CACD6",
"y.	c #3DACD5",
"z.	c #4092A6",
"A.	c #469ACA",
"B.	c #0378BB",
"C.	c #0779BB",
"D.	c #0C7CBC",
"E.	c #1083BE",
"F.	c #1380BF",
"G.	c #288CC6",
"H.	c #2992C9",
"I.	c #2C94CA",
"J.	c #2E96CC",
"K.	c #3BAAD3",
"L.	c #3CA7D4",
"M.	c #3FACD5",
"N.	c #3FAED7",
"O.	c #3FB1D7",
"P.	c #40B2D8",
"Q.	c #6CB8DC",
"R.	c #3C8EA6",
"S.	c #4298CA",
"T.	c #0A7FBC",
"U.	c #0E7EBE",
"V.	c #1285C0",
"W.	c #1683C2",
"X.	c #1A85C2",
"Y.	c #37A5D3",
"Z.	c #40AFD8",
"`.	c #41B3D9",
" +	c #43B4D9",
".+	c #44B5DA",
"++	c #43B5DB",
"@+	c #44B3D8",
"#+	c #3EADD6",
"$+	c #3CABD4",
"%+	c #6CBBDC",
"&+	c #398DA5",
"*+	c #4097C8",
"=+	c #1582C1",
"-+	c #1984C1",
";+	c #3BA8D5",
">+	c #3FB0D5",
",+	c #46B5DA",
"'+	c #47B6DB",
")+	c #46BBDC",
"!+	c #48BBDC",
"~+	c #47BBDD",
"{+	c #48BCDE",
"]+	c #6ABCDE",
"^+	c #358CA5",
"/+	c #3D96C9",
"(+	c #0B7CBD",
"_+	c #2088C4",
":+	c #238BC7",
"<+	c #298DC7",
"[+	c #2C93C8",
"}+	c #43B2D7",
"|+	c #47BADB",
"1+	c #48C0DE",
"2+	c #49C1DF",
"3+	c #4BC1DF",
"4+	c #4BBEDF",
"5+	c #4ABDDE",
"6+	c #49BDDF",
"7+	c #48B9DE",
"8+	c #6AC0E0",
"9+	c #338AA3",
"0+	c #3B95C9",
"a+	c #097ABB",
"b+	c #1184BF",
"c+	c #2B8FC9",
"d+	c #2F99CB",
"e+	c #4CC2E0",
"f+	c #4DC3E1",
"g+	c #4EC6E0",
"h+	c #4EC4E2",
"i+	c #4EC8E2",
"j+	c #4EC3E0",
"k+	c #4EC1DE",
"l+	c #2F89A3",
"m+	c #3B94C7",
"n+	c #288EC8",
"o+	c #2F9CCF",
"p+	c #4FC9E3",
"q+	c #50CAE4",
"r+	c #51CBE5",
"s+	c #2C84A4",
"t+	c #3793C7",
"u+	c #067ABC",
"v+	c #1D86C3",
"w+	c #2B92C7",
"x+	c #339CCD",
"y+	c #52CFE6",
"z+	c #53D0E7",
"A+	c #54D1E8",
"B+	c #53D4E7",
"C+	c #69C0E1",
"D+	c #2B81A1",
"E+	c #3593C9",
"F+	c #2790C7",
"G+	c #51CEE5",
"H+	c #54D5E8",
"I+	c #55D6E9",
"J+	c #56D7EA",
"K+	c #56DAEA",
"L+	c #44B6DC",
"M+	c #2780A1",
"N+	c #3391C7",
"O+	c #127FBE",
"P+	c #57DBEB",
"Q+	c #58E0EC",
"R+	c #59E0ED",
"S+	c #57DFEB",
"T+	c #67C3E1",
"U+	c #247EA0",
"V+	c #3190C7",
"W+	c #258EC5",
"X+	c #48B7DC",
"Y+	c #58DCEC",
"Z+	c #5CE2EE",
"`+	c #5CE5EE",
" @	c #66C2E0",
".@	c #217D9F",
"+@	c #2E8FC6",
"@@	c #208CC4",
"#@	c #258CC7",
"$@	c #36A4D2",
"%@	c #4FC5E3",
"&@	c #57D8EB",
"*@	c #5AE5EE",
"=@	c #5DE9EF",
"-@	c #5EECF2",
";@	c #5DE8F1",
">@	c #65C2E1",
",@	c #1E789E",
"'@	c #2B8DC5",
")@	c #5FEDF3",
"!@	c #5DEBF1",
"~@	c #62C1E0",
"{@	c #1A779E",
"]@	c #298CC5",
"^@	c #0F7EBD",
"/@	c #5AE1EE",
"(@	c #5DE6EF",
"_@	c #61C0DF",
":@	c #18779E",
"<@	c #258DC3",
"[@	c #1281C0",
"}@	c #5DBFDF",
"|@	c #14749C",
"1@	c #2288C2",
"2@	c #44BADC",
"3@	c #5ABDDE",
"4@	c #11749D",
"5@	c #1E86C2",
"6@	c #52CCE6",
"7@	c #57BCDD",
"8@	c #0E729C",
"9@	c #49BCDD",
"0@	c #53BBDD",
"a@	c #0B6D9B",
"b@	c #1782BF",
"c@	c #459BCD",
"d@	c #489DCE",
"e@	c #4DA0CF",
"f@	c #50A3D2",
"g@	c #52A6D2",
"h@	c #57A6D3",
"i@	c #57AAD5",
"j@	c #5BABD5",
"k@	c #5BB1D9",
"l@	c #5DB4D9",
"m@	c #5FB6DB",
"n@	c #60B7DC",
"o@	c #64BBDC",
"p@	c #65BEDF",
"q@	c #67C1DF",
"r@	c #68C2E0",
"s@	c #6BC4E1",
"t@	c #6CC5E2",
"u@	c #6DC8E3",
"v@	c #70CDE4",
"w@	c #6FCCE7",
"x@	c #6FD2E7",
"y@	c #72D0E8",
"z@	c #72D1E8",
"A@	c #75D0E7",
"B@	c #75D3E7",
"C@	c #71CFE7",
"D@	c #6FCAE5",
"E@	c #6DCBE3",
"F@	c #51B4D9",
"G@	c #076C9B",
"H@	c #0277BA",
"I@	c #0B80BD",
"J@	c #449ACC",
"K@	c #0C4160",
"L@	c #0F4561",
"M@	c #114461",
"N@	c #124864",
"O@	c #144764",
"P@	c #154A65",
"Q@	c #164B66",
"R@	c #174C67",
"S@	c #1A4E66",
"T@	c #1B4F67",
"U@	c #1C5068",
"V@	c #1D5369",
"W@	c #1E546A",
"X@	c #1F556B",
"Y@	c #20596C",
"Z@	c #205B6C",
"`@	c #215C6D",
" #	c #225D6E",
".#	c #245D6E",
"+#	c #23606F",
"@#	c #255F6F",
"##	c #265F70",
"$#	c #266370",
"%#	c #256271",
"&#	c #245F70",
"*#	c #4CB2D8",
"=#	c #056A99",
"-#	c #429ACC",
";#	c #0B4261",
">#	c #1A4F6E",
",#	c #1D516F",
"'#	c #1E5470",
")#	c #205370",
"!#	c #235671",
"~#	c #245772",
"{#	c #255873",
"]#	c #265B74",
"^#	c #275C75",
"/#	c #285C74",
"(#	c #295F75",
"_#	c #2A6076",
":#	c #2B6177",
"<#	c #2B6479",
"[#	c #2C6578",
"}#	c #2D6679",
"|#	c #2E677A",
"1#	c #2E697A",
"2#	c #2F6A7B",
"3#	c #31697B",
"4#	c #306B7C",
"5#	c #316C7D",
"6#	c #235B6D",
"7#	c #69C3E1",
"8#	c #49ACD5",
"9#	c #016999",
"0#	c #0D7CBB",
"a#	c #3F98CB",
"b#	c #0A4160",
"c#	c #194E6D",
"d#	c #1D536F",
"e#	c #1F526F",
"f#	c #205570",
"g#	c #255A73",
"h#	c #295D75",
"i#	c #286178",
"j#	c #2A6378",
"k#	c #2B6477",
"l#	c #2C6278",
"m#	c #2F6779",
"n#	c #30687A",
"o#	c #2F687B",
"p#	c #67BEDF",
"q#	c #44AAD4",
"r#	c #006898",
"s#	c #3E97CA",
"t#	c #09405F",
"u#	c #17506D",
"v#	c #1C526E",
"w#	c #215671",
"x#	c #275B73",
"y#	c #275E75",
"z#	c #285F76",
"A#	c #2D6879",
"B#	c #65BCDD",
"C#	c #41A7D1",
"D#	c #006092",
"E#	c #067DBA",
"F#	c #063E5E",
"G#	c #164F6C",
"H#	c #184D6C",
"I#	c #1E516E",
"J#	c #2A6178",
"K#	c #1D566B",
"L#	c #63B8DB",
"M#	c #3B9BCD",
"N#	c #005D92",
"O#	c #0173B5",
"P#	c #3994C9",
"Q#	c #053E5F",
"R#	c #144C6C",
"S#	c #154D6D",
"T#	c #184F6E",
"U#	c #19526F",
"V#	c #225772",
"W#	c #245972",
"X#	c #265D74",
"Y#	c #286278",
"Z#	c #1C5268",
"`#	c #5FB5D9",
" $	c #2B94C5",
".$	c #006594",
"+$	c #005F96",
"@$	c #0072B4",
"#$	c #3893C8",
"$$	c #053D5D",
"%$	c #134B6B",
"&$	c #1F5571",
"*$	c #255771",
"=$	c #275973",
"-$	c #285A74",
";$	c #2A5E76",
">$	c #1B5069",
",$	c #5FB2D9",
"'$	c #2693C6",
")$	c #006BA2",
"!$	c #005682",
"~$	c #005B8A",
"{$	c #005A88",
"]$	c #287FAC",
"^$	c #002D44",
"/$	c #005C8C",
"                                                                                                ",
"                                                                                                ",
"                                                                                                ",
"                                                                                                ",
"                                                                                                ",
"                                                                                                ",
"                                                                                                ",
"    . + @ # # # # # # # # # # # # # # # # # # # # # # # # # # # # # # # # # # # # # # # $ %     ",
"  & * = - ; ; ; ; ; ; ; ; ; ; ; ; ; ; ; ; ; ; ; ; ; ; ; ; ; ; ; ; ; ; ; ; ; ; ; ; ; ; - > , '   ",
"  ) ! ~ { ] ] ] ] ] ] ] ] ] ] ] ] ] ] ] ] ] ] ] ] ] ] ] ] ] ] ] ] ] ] ] ] ] ] ] ] ] ] { ^ / )   ",
"  ( _ : : : : : : : : : : : : : : : : : : : : : : : : : : : : : : : : : : : : : : : : : : _ (   ",
"  < [ } } } } } } } } } } } } } } } } } } } } } } } } } } } } } } } } } } } } } } } } } } [ <   ",
"  | 1 2 2 2 2 2 2 2 2 2 2 2 2 2 2 2 2 2 2 2 2 2 2 2 2 2 2 2 2 2 2 2 2 2 2 2 2 2 2 2 2 2 2 1 |   ",
"  3 4 3 3 3 3 3 3 3 3 3 3 3 3 3 3 3 3 3 3 3 3 3 3 3 3 3 3 3 3 3 3 3 3 3 3 3 3 3 3 3 3 3 3 4 3   ",
"  5 6 7 7 7 7 7 7 8 9 0 a b c d e f g h i j k l m n o p q q r r s s r r q q p o n m t u v w x   ",
"  y z A A A A A B C D E F G H I J K L M N O P Q R S T U V W W W W W W W W V X T S R Y Z `  .y   ",
"  ..+.@.@.@.@.#.$.%.&.*.=.-.;.>.,.'.).!.~.{.].^./.(._.:.<.[.}.|.1.1.|.}.[.<.2.:.(./.3.4.{.5...  ",
"  6.7.@.@.@.#.8.%.&.*.=.9.;.0.a.b.c.d.e.].3./.(.2.[.1.f.f.g.g.h.h.h.h.g.g.f.f.1.[.i._./.3.j.6.  ",
"  k.l.@.@.m.n.o.p.*.=.9.;.q.r.s.!.~.t.u./.(.i.}.f.g.h.v.w.x.x.y.y.y.y.y.x.w.v.h.g.f.|.<._.j.k.  ",
"  z.A.@.m.B.C.D.E.F.-.;.q.r.G.H.I.J.3.(.:.[.f.g.K.L.y.M.N.O.P.P.P.P.P.P.O.N.M.y.L.K.g.f.}.Q.z.  ",
"  R.S.@.#.$.T.U.V.W.X.0.a.s.!.I.].3.(.<.1.Y.h.L.y.N.Z.`.`. +.+++++++++.+ +@+`.P.N.#+$+K.g.%+R.  ",
"  &+*+m.B.o.&.*.=+-+>.,.b.!.I.J.3.(.<.1.g.;+x.>+P.`. +,+'+)+!+~+{+{+~+!+)+'+,+.+`.P.N.y.w.]+&+  ",
"  ^+/+#.$.(+U.F.-.;._+:+<+[+t.3.(.<.1.g.w.y.N.}+ +,+|+!+1+2+3+4+3+3+4+3+5+6+7+)+,+ +`.O.#+8+^+  ",
"  9+0+B.a+p.b+=+X.>.a.s.c+{.d+/.2.1.g.w.y.O.`..+'+!+6+3+e+f+g+h+i+i+i+h+j+k+3+6+~+'+++`.O.8+9+  ",
"  l+m+8.%.U.F.W.;._+'.n+~.J.o+_.[.f.K.y.N.`..+'+{+5+e+j+i+p+q+r+r+r+r+q+p+i+j+k+4+{+|+++`.8+l+  ",
"  s+t+u+(+E.=.-+v+,.s.w+e.d+x+i.1.g.$+M.P. +'+{+4+k+h+p+r+y+z+z+A+A+B+z+y+r+p+i+k+3+{+'+.+C+s+  ",
"  D+E+C.p.*.=+X.0.r.F+d.t.3.(.[.f.v.y.O.@+,+!+2+e+h+q+G+z+H+I+J+K+K+J+I+H+z+G+q+i+k+5+~+L+C+D+  ",
"  M+N+o.&.O+W.;.q.:+<+~.]./.:.1.g.w.M.P..+'+{+4+j+p+r+z+H+J+P+Q+R+R+Q+S+K+I+z+G+p+h+e+6+)+T+M+  ",
"  U+V+%.&.V.W.;._+W+!.I.4./.2.1.g.x.N.`.++X+6+k+i+q+y+H+J+Y+R+Z+`+`+`+R+Y+J+H+y+q+i+k+5+!+ @U+  ",
"  .@+@%.U.F.-.;.@@#@!.e.4./.<.$@h.x.N.`.,+!+5+k+%@r+z+I+&@R+*@=@-@-@;@`+R+P+I+z+r+p+f+3+7+>@.@  ",
"  ,@'@%.U.F.-.v+@@#@!.e.d+x+<.$@h.x.O.`.,+!+5+f+%@r+z+I+P+R+`+;@)@)@!@`+R+P+I+z+G+p+j+3+{+~@,@  ",
"  {@]@%.^@F.W.;._+#@!.I.4./.i.$@h.x.N.`.++!+2+k+i+q+y+H+K+Q+/@`+=@=@(@/@Q+K+I+z+r+%@f+4+!+_@{@  ",
"  :@<@o.&.[@W.;._+'.c.I.4./.:.1.g.L.>+P..+)+6+e+h+q+G+z+I+&@Q+R+/@/@R+Q+P+I+B+y+q+h+e+6+X+}@:@  ",
"  |@1@a+&.b+=+X.0.:+<+[+t.3.:.}.g.;+#+P. +2@7+4+f+i+q+y+B+I+J+P+P+S+P+J+I+A+y+q+%@f+3+{+'+3@|@  ",
"  4@5@C.D.*.=.-+>.a.G.c+{.^.(.<.f.h.x.N.`.++|+{+3+f+i+q+G+z+B+H+I+I+H+A+z+6@q+p+j+3+6+X+++7@4@  ",
"  8@-+$.(+U.F.9.v+@@#@!.I.4./.:.|.g.w.#+O.`.,+X+9@3+f+h+p+q+G+y+y+y+y+G+q+p+i+f+4+6+!+,+ +0@8@  ",
"  a@b@n.o.&.O+c@d@e@f@g@h@i@j@k@l@m@n@o@p@q@r@s@t@u@v@w@x@y@z@A@B@B@A@A@y@C@w@D@E@X+,+ +P.F@a@  ",
"  G@O+H@C.I@E.J@K@L@M@N@O@P@Q@R@S@T@U@V@W@X@Y@Z@`@ #.#+#@#####$#%#%#$#####&#@#.#t@++@+P.>+*#G@  ",
"  =#^@m.8.%.&.-#;#>#,#'#)#!#~#{#]#^#/#(#_#:#<#[#}#|#1#2#3#4#4#5#5#5#5#4#4#3#2#6#7#`.O.M.$+8#=#  ",
"  9#0#@.H@C.(+a#b#c#>#d#e#f#!#~#g#]#^#/#h#i#j#k#l#[#}#m#|#1#n#2#2#2#2#o#n#1#|#Y@p#N.y.w.h.q#9#  ",
"  r#%.@.m.n.o.s#t#u#c#v#d#e#w#!#~#{#]#x#y#z#i#_#j#k#l#[#}#}#}#A#A#A#A#}#}#}#[#X@B#L.K.g.1.C#r#  ",
"  D#E#@.@.#.$.0+F#G#H#c#v#I#e#w#!#~#{#g#]#^#/#z#i#_#J#:#k#<#l#[#[#[#[#l#<#k#:#K#L#g.f.}.2.M#D#  ",
"  N#O#m.@.@.H@P#Q#R#S#T#U#v#d#e#)#!#V#W#g#]#X#^#/#z#(#i#Y#_#_#J#j#j#J#_#_#_#i#Z#`#[.i.(.(. $.$  ",
"    +$@$m.m.#.#$$$%$G#u#c#>#d#'#&$w#!#~#*$g#]#=$^#-$/#h#h#h#i#;$;$;$;$i#h#h#h#>$,$2._.x+'$)$    ",
"    !$~${${${$]$^$^$^$^$^$^$^$^$^$^$^$^$^$^$^$^$^$^$^$^$^$^$^$^$^$^$^$^$^$^$^$^$]${${${$/$!$    ",
"                                                                                                ",
"                                                                                                ",
"                                                                                                "};
