/* XPM */
static char * desktop_xpm[] = {
"24 24 194 2",
"  	c None",
". 	c #3D5A55",
"+ 	c #3D5A54",
"@ 	c #3B5650",
"# 	c #3D5752",
"$ 	c #373D3D",
"% 	c #2E2E2E",
"& 	c #373C3C",
"* 	c #3B5752",
"= 	c #2C2C2C",
"- 	c #3C5953",
"; 	c #3B5C56",
"> 	c #263F3B",
", 	c #26403C",
"' 	c #27403C",
") 	c #27413C",
"! 	c #27423C",
"~ 	c #27433C",
"{ 	c #28433C",
"] 	c #28443C",
"^ 	c #3D6057",
"/ 	c #3C877E",
"( 	c #008E79",
"_ 	c #01907A",
": 	c #02957A",
"< 	c #04997B",
"[ 	c #059D7C",
"} 	c #069F7C",
"| 	c #08A37D",
"1 	c #09A67D",
"2 	c #0AA97E",
"3 	c #0AAB7E",
"4 	c #0BAD7F",
"5 	c #0CAE7F",
"6 	c #0CAF7F",
"7 	c #0BAB7E",
"8 	c #409381",
"9 	c #00927C",
"0 	c #01947C",
"a 	c #02997D",
"b 	c #049E7E",
"c 	c #06A27F",
"d 	c #07A680",
"e 	c #08AA81",
"f 	c #0AAE82",
"g 	c #0BB182",
"h 	c #0CB483",
"i 	c #0DB784",
"j 	c #0EB984",
"k 	c #0EBB84",
"l 	c #0EBC85",
"m 	c #0FBC85",
"n 	c #0CB583",
"o 	c #0BB283",
"p 	c #00937C",
"q 	c #02987D",
"r 	c #049D7E",
"s 	c #07A780",
"t 	c #09AB81",
"u 	c #0AAF82",
"v 	c #0CB383",
"w 	c #0FBE85",
"x 	c #10C085",
"y 	c #11C286",
"z 	c #11C386",
"A 	c #10C086",
"B 	c #0DB884",
"C 	c #02977D",
"D 	c #039C7E",
"E 	c #05A17F",
"F 	c #0AB082",
"G 	c #0DB984",
"H 	c #0FBD85",
"I 	c #10C186",
"J 	c #11C486",
"K 	c #12C787",
"L 	c #13C987",
"M 	c #14CA88",
"N 	c #14CB88",
"O 	c #12C486",
"P 	c #03997E",
"Q 	c #049F7F",
"R 	c #06A480",
"S 	c #08A981",
"T 	c #12C687",
"U 	c #13CA88",
"V 	c #15CD88",
"W 	c #16D089",
"X 	c #16D289",
"Y 	c #15CE88",
"Z 	c #01967D",
"` 	c #09AC81",
" .	c #15CF89",
"..	c #17D389",
"+.	c #18D78A",
"@.	c #19D98B",
"#.	c #19DA8B",
"$.	c #17D48A",
"%.	c #14CC88",
"&.	c #06A37F",
"*.	c #08A881",
"=.	c #18D88B",
"-.	c #1ADD8B",
";.	c #1BE08C",
">.	c #1CE18C",
",.	c #1ADD8C",
"'.	c #0EBA84",
").	c #12C587",
"!.	c #16D189",
"~.	c #18D68A",
"{.	c #1ADC8B",
"].	c #1DE68D",
"^.	c #1EE98E",
"/.	c #1DE78D",
"(.	c #1CE28D",
"_.	c #1EE78E",
":.	c #1FEC8F",
"<.	c #1EE88E",
"[.	c #1CE38D",
"}.	c #18D88A",
"|.	c #06A380",
"1.	c #10BF85",
"2.	c #12C586",
"3.	c #15D089",
"4.	c #17D58A",
"5.	c #1BDF8C",
"6.	c #1DE48D",
"7.	c #19DB8B",
"8.	c #049C7E",
"9.	c #05A27F",
"0.	c #09AD82",
"a.	c #13C787",
"b.	c #13C887",
"c.	c #01957D",
"d.	c #039A7E",
"e.	c #06A080",
"f.	c #148B6E",
"g.	c #13896B",
"h.	c #158E6C",
"i.	c #16916D",
"j.	c #17956D",
"k.	c #18986E",
"l.	c #199C6F",
"m.	c #1A9F70",
"n.	c #1BA270",
"o.	c #1CA571",
"p.	c #1DA871",
"q.	c #1DA972",
"r.	c #1EAB76",
"s.	c #079E80",
"t.	c #145647",
"u.	c #14473B",
"v.	c #15493B",
"w.	c #154A3B",
"x.	c #164C3C",
"y.	c #164D3C",
"z.	c #174F3C",
"A.	c #17503D",
"B.	c #18513D",
"C.	c #18523D",
"D.	c #18533D",
"E.	c #19533D",
"F.	c #19684B",
"G.	c #15C888",
"H.	c #069B80",
"I.	c #135547",
"J.	c #14463B",
"K.	c #15473B",
"L.	c #164B3C",
"M.	c #174E3C",
"N.	c #174F3D",
"O.	c #18654A",
"P.	c #13C187",
"Q.	c #03917C",
"R.	c #04977F",
"S.	c #125346",
"T.	c #14453A",
"U.	c #164E3C",
"V.	c #186249",
"W.	c #11BB85",
"X.	c #0FB282",
"Y.	c #1A655C",
"Z.	c #1B665C",
"`.	c #17433D",
" +	c #154138",
".+	c #174239",
"++	c #174539",
"@+	c #17453A",
"#+	c #18453A",
"$+	c #18463A",
"%+	c #18483A",
"&+	c #1B4D3E",
"*+	c #20795F",
"=+	c #1F775F",
"                                                ",
"                                                ",
"    . + + + + + + + @ # # # # # # # # # # #     ",
"  $ % % % % % % % % % % % % % % % % % % % % &   ",
"* = = = = = = = = = = = = = = = = = = = = = = - ",
"; > > > > > , ' ) ! ! ~ { ] ] ] ] ] ] ] { ~ ! ^ ",
"/ ( ( ( _ : < [ } | 1 2 3 4 5 6 6 6 5 4 7 2 1 8 ",
"  9 9 0 a b c d e f g h i j k l m l k j i n o   ",
"  9 p q r c s t u v i k w x y z z z y A w k B   ",
"  9 C D E d t F h G H I J K L M N N L K O I H   ",
"  0 P Q R S f v B H y T U V W X X X W Y N K y   ",
"  Z D E d ` g i m I T N  ...+.@.#.@.+.$.W %.K   ",
"  C r &.*.f v j w J L Y $.=.-.;.>.;.,.@.$. .M   ",
"  q b R S u n '.x ).N !.~.{.>.].^./.(.-.+.X %.  ",
"  q b R S u n '.A T N !.+.{.(._.:.<.[.,.}.X %.  ",
"  q r |.S f h '.1.2.M 3.4.#.5.(.6.[.5.7.~.W N   ",
"  C 8.9.s 0.o B H y a.%.!.4.@.{.-.{.#.~.X V b.  ",
"  c.d.e.f.g.h.i.j.k.l.m.n.o.p.q.q.q.p.r.V L J   ",
"  9 q s.t.u.v.w.x.y.z.A.B.C.D.E.E.E.D.F.G.z 1.  ",
"  9 c.H.I.J.K.v.w.L.y.M.N.A.B.B.B.B.B.O.P.H '.  ",
"  Q.9 R.S.T.J.K.v.w.L.x.y.U.M.M.z.z.M.V.W.i X.  ",
"    Y.Z.`. +.+.+++@+#+$+%+%+%+%+%+%+%+&+*+=+    ",
"                                                ",
"                                                "};
