/* XPM */
static char * desktop_xpm[] = {
"16 16 130 2",
"  	c None",
". 	c #3D4A51",
"+ 	c #3E4040",
"@ 	c #3E3E3E",
"# 	c #3D4C51",
"$ 	c #232323",
"% 	c #494949",
"& 	c #555555",
"* 	c #050505",
"= 	c #4B4B4B",
"- 	c #252525",
"; 	c #000000",
"> 	c #2C85A2",
", 	c #4993BD",
"' 	c #0871A8",
") 	c #1275AE",
"! 	c #1D7BB1",
"~ 	c #2685B6",
"{ 	c #2C88B8",
"] 	c #308FBC",
"^ 	c #3495BE",
"/ 	c #379ABF",
"( 	c #379DC3",
"_ 	c #399CC1",
": 	c #3499BE",
"< 	c #6BAFCF",
"[ 	c #2580A1",
"} 	c #449ACC",
"| 	c #127FBE",
"1 	c #1E87C4",
"2 	c #2B92C7",
"3 	c #319CCD",
"4 	c #38A5D2",
"5 	c #3EADD6",
"6 	c #43B4D9",
"7 	c #48B7DC",
"8 	c #49BCDD",
"9 	c #49BDDF",
"0 	c #6FC2E1",
"a 	c #1F7C9F",
"b 	c #409AC8",
"c 	c #1883C0",
"d 	c #258EC5",
"e 	c #2E9ACC",
"f 	c #359FD1",
"g 	c #3DACD5",
"h 	c #43B5DB",
"i 	c #4BC1DF",
"j 	c #4FC9E3",
"k 	c #6EC5E2",
"l 	c #19769D",
"m 	c #3998C9",
"n 	c #1B86C3",
"o 	c #288EC8",
"p 	c #3AA5D2",
"q 	c #40B2D8",
"r 	c #48BCDE",
"s 	c #4ECEE2",
"t 	c #4CD2E2",
"u 	c #4CD6E2",
"v 	c #6CC9E4",
"w 	c #12729E",
"x 	c #3291C8",
"y 	c #1D86C3",
"z 	c #298FC9",
"A 	c #339CCD",
"B 	c #3BA6D3",
"C 	c #41B3D9",
"D 	c #4ABDDE",
"E 	c #4ED2E2",
"F 	c #4ADCE2",
"G 	c #64CAE4",
"H 	c #0B6D9B",
"I 	c #298CC5",
"J 	c #489DCE",
"K 	c #54A4D2",
"L 	c #5BAFD7",
"M 	c #60B7DC",
"N 	c #67C1DF",
"O 	c #6DC8E3",
"P 	c #75D0E7",
"Q 	c #72D8E8",
"R 	c #70DBE8",
"S 	c #5DC3E1",
"T 	c #056A99",
"U 	c #1E86C2",
"V 	c #459ECD",
"W 	c #133D53",
"X 	c #184256",
"Y 	c #1B4557",
"Z 	c #1D495B",
"` 	c #204C5C",
" .	c #224F5E",
"..	c #25555F",
"+.	c #245560",
"@.	c #6ECCE4",
"#.	c #53BEDD",
"$.	c #006898",
"%.	c #117EBD",
"&.	c #4199CB",
"*.	c #103B54",
"=.	c #1F495F",
"-.	c #234D61",
";.	c #255163",
">.	c #285264",
",.	c #295867",
"'.	c #2B5867",
").	c #2D5A67",
"!.	c #20505E",
"~.	c #67C3E1",
"{.	c #47B0D7",
"].	c #006092",
"^.	c #0074B0",
"/.	c #3E97CA",
"(.	c #0E3952",
"_.	c #1E475E",
":.	c #224A5E",
"<.	c #244E62",
"[.	c #265062",
"}.	c #295263",
"|.	c #285464",
"1.	c #285766",
"2.	c #1E4A5A",
"3.	c #64B7DA",
"4.	c #2891C2",
"5.	c #005F96",
"6.	c #00588A",
"7.	c #297DA9",
"8.	c #002A40",
"9.	c #00598C",
"                                ",
". + @ @ @ @ @ @ @ @ @ @ @ @ + # ",
"$ % & & & & & & & & & & & & % $ ",
"* = - - - - - - - - - - - - = * ",
"; ; ; ; ; ; ; ; ; ; ; ; ; ; ; ; ",
"> , ' ) ! ~ { ] ^ / ( _ / : < > ",
"[ } | 1 2 3 4 5 6 7 8 9 7 6 0 [ ",
"a b c d e f g h i j j j j i k a ",
"l m n o 3 p q r j s t u s j v l ",
"w x y z A B C D j E F F E j G w ",
"H I J K L M N O P Q R R Q P S H ",
"T U V W X Y Z `  ...+.+...@.#.T ",
"$.%.&.*.=.-.;.>.,.'.).).!.~.{.$.",
"].^./.(._.:.<.[.}.|.1.1.2.3.4.5.",
"  6.7.8.8.8.8.8.8.8.8.8.8.7.9.  ",
"                                "};
