<?xml version="1.0" encoding="UTF-8" standalone="no"?>
<svg
   xmlns:dc="http://purl.org/dc/elements/1.1/"
   xmlns:cc="http://creativecommons.org/ns#"
   xmlns:rdf="http://www.w3.org/1999/02/22-rdf-syntax-ns#"
   xmlns:svg="http://www.w3.org/2000/svg"
   xmlns="http://www.w3.org/2000/svg"
   xmlns:xlink="http://www.w3.org/1999/xlink"
   version="1.0"
   width="96"
   height="96"
   id="svg2408">
  <defs
     id="defs2410">
    <linearGradient
       id="linearGradient4282">
      <stop
         id="stop4284"
         style="stop-color:#e8e8e8;stop-opacity:1"
         offset="0" />
      <stop
         id="stop4286"
         style="stop-color:#828282;stop-opacity:1"
         offset="1" />
    </linearGradient>
    <linearGradient
       x1="45.447727"
       y1="92.539597"
       x2="45.447727"
       y2="7.0165396"
       id="ButtonShadow"
       gradientUnits="userSpaceOnUse"
       gradientTransform="scale(1.0058652,0.994169)">
      <stop
         id="stop3750"
         style="stop-color:#000000;stop-opacity:1"
         offset="0" />
      <stop
         id="stop3752"
         style="stop-color:#000000;stop-opacity:0.58823532"
         offset="1" />
    </linearGradient>
    <linearGradient
       id="linearGradient3737">
      <stop
         id="stop3739"
         style="stop-color:#ffffff;stop-opacity:1"
         offset="0" />
      <stop
         id="stop3741"
         style="stop-color:#ffffff;stop-opacity:0"
         offset="1" />
    </linearGradient>
    <filter
       color-interpolation-filters="sRGB"
       id="filter3174">
      <feGaussianBlur
         id="feGaussianBlur3176"
         stdDeviation="1.71" />
    </filter>
    <filter
       x="-0.192"
       y="-0.192"
       width="1.3839999"
       height="1.3839999"
       color-interpolation-filters="sRGB"
       id="filter3794">
      <feGaussianBlur
         id="feGaussianBlur3796"
         stdDeviation="5.28" />
    </filter>
    <linearGradient
       x1="48"
       y1="20.220806"
       x2="48"
       y2="138.66119"
       id="linearGradient3613"
       xlink:href="#linearGradient3737"
       gradientUnits="userSpaceOnUse" />
    <clipPath
       id="clipPath3613">
      <rect
         width="84"
         height="84"
         rx="6"
         ry="6"
         x="6"
         y="6"
         id="rect3615"
         style="fill:#ffffff;fill-opacity:1;fill-rule:nonzero;stroke:none" />
    </clipPath>
    <radialGradient
       cx="48"
       cy="90.171875"
       r="42"
       fx="48"
       fy="90.171875"
       id="radialGradient2874"
       xlink:href="#linearGradient3737-7"
       gradientUnits="userSpaceOnUse"
       gradientTransform="matrix(1.1573129,0,0,0.99590774,-7.551021,0.1971319)" />
    <linearGradient
       id="linearGradient3737-7">
      <stop
         id="stop3739-2"
         style="stop-color:#ffffff;stop-opacity:1"
         offset="0" />
      <stop
         id="stop3741-7"
         style="stop-color:#ffffff;stop-opacity:0"
         offset="1" />
    </linearGradient>
    <linearGradient
       x1="43.17857"
       y1="13"
       x2="43.17857"
       y2="83.294571"
       id="linearGradient3279"
       xlink:href="#linearGradient3273"
       gradientUnits="userSpaceOnUse"
       gradientTransform="matrix(1.0294118,0,0,-1.0294118,-1.4117647,97.411765)" />
    <linearGradient
       x1="36.357143"
       y1="6"
       x2="36.357143"
       y2="63.893143"
       id="linearGradient3188-8"
       xlink:href="#linearGradient3737-0"
       gradientUnits="userSpaceOnUse" />
    <linearGradient
       id="linearGradient3737-0">
      <stop
         id="stop3739-4"
         style="stop-color:#ffffff;stop-opacity:1"
         offset="0" />
      <stop
         id="stop3741-76"
         style="stop-color:#ffffff;stop-opacity:0"
         offset="1" />
    </linearGradient>
    <linearGradient
       x1="48"
       y1="90"
       x2="48"
       y2="5.9877172"
       id="linearGradient2912"
       xlink:href="#linearGradient3187-9"
       gradientUnits="userSpaceOnUse" />
    <linearGradient
       id="linearGradient3273">
      <stop
         id="stop3275"
         style="stop-color:#b2b2b2;stop-opacity:1"
         offset="0" />
      <stop
         id="stop3277"
         style="stop-color:#898989;stop-opacity:1"
         offset="1" />
    </linearGradient>
    <linearGradient
       id="linearGradient3187-9">
      <stop
         id="stop3189-7"
         style="stop-color:#656565;stop-opacity:1"
         offset="0" />
      <stop
         id="stop3191-8"
         style="stop-color:#dcdcdc;stop-opacity:1"
         offset="1" />
    </linearGradient>
    <linearGradient
       id="linearGradient3234">
      <stop
         id="stop3236"
         style="stop-color:#232323;stop-opacity:1"
         offset="0" />
      <stop
         id="stop3238"
         style="stop-color:#4b4b4b;stop-opacity:1"
         offset="1" />
    </linearGradient>
    <linearGradient
       x1="60.777386"
       y1="115.27915"
       x2="60.777386"
       y2="8.550745"
       id="linearGradient3880"
       xlink:href="#linearGradient3234"
       gradientUnits="userSpaceOnUse"
       gradientTransform="matrix(0.68606063,0,0,0.68375842,4.2424239,5.7272471)" />
    <clipPath
       id="clipPath3918">
      <rect
         width="68"
         height="68"
         rx="3"
         ry="3"
         x="14"
         y="14"
         id="rect3920"
         style="fill:#ffffff;fill-opacity:1;stroke:none" />
    </clipPath>
    <linearGradient
       id="linearGradient7450">
      <stop
         id="stop7452"
         style="stop-color:#e3e3e3;stop-opacity:1"
         offset="0" />
      <stop
         id="stop7454"
         style="stop-color:#939393;stop-opacity:1"
         offset="1" />
    </linearGradient>
    <linearGradient
       id="linearGradient3187-1">
      <stop
         id="stop3189-0"
         style="stop-color:#656565;stop-opacity:1"
         offset="0" />
      <stop
         id="stop3191-1"
         style="stop-color:#dcdcdc;stop-opacity:1"
         offset="1" />
    </linearGradient>
    <filter
       color-interpolation-filters="sRGB"
       id="filter7809">
      <feGaussianBlur
         id="feGaussianBlur7811"
         stdDeviation="1.8596875" />
    </filter>
    <filter
       color-interpolation-filters="sRGB"
       id="filter7813">
      <feGaussianBlur
         id="feGaussianBlur7815"
         stdDeviation="1.4521875" />
    </filter>
    <linearGradient
       id="linearGradient3298">
      <stop
         id="stop3300"
         style="stop-color:#f9f9f9;stop-opacity:1"
         offset="0" />
      <stop
         id="stop3302"
         style="stop-color:#3c3c3c;stop-opacity:1"
         offset="1" />
    </linearGradient>
    <filter
       color-interpolation-filters="sRGB"
       id="filter7542">
      <feGaussianBlur
         id="feGaussianBlur7544"
         stdDeviation="0.063379309" />
    </filter>
    <filter
       color-interpolation-filters="sRGB"
       id="filter4244">
      <feGaussianBlur
         id="feGaussianBlur4246"
         stdDeviation="1.56844" />
    </filter>
    <radialGradient
       cx="48.969208"
       cy="1.4732536"
       r="83.476051"
       fx="48.969208"
       fy="1.4732536"
       id="radialGradient4255"
       xlink:href="#linearGradient7450"
       gradientUnits="userSpaceOnUse"
       gradientTransform="matrix(0.4851181,0.48511809,-0.27625611,0.27625612,9.1698468,-2.8070283)" />
    <linearGradient
       x1="73.194839"
       y1="34.162155"
       x2="49.625214"
       y2="19.183952"
       id="linearGradient4257"
       xlink:href="#linearGradient3187-1"
       gradientUnits="userSpaceOnUse"
       gradientTransform="matrix(0.48690278,0.48332685,-0.48332685,0.48690278,9.3873253,-3.0294508)" />
    <radialGradient
       cx="48.969208"
       cy="1.4732536"
       r="83.476051"
       fx="48.969208"
       fy="1.4732536"
       id="radialGradient4259"
       xlink:href="#linearGradient7450"
       gradientUnits="userSpaceOnUse"
       gradientTransform="matrix(0.9999932,0.00368562,-0.00209882,0.5694577,0.00342469,0.4534116)" />
    <linearGradient
       x1="39.291836"
       y1="18.784508"
       x2="77.519737"
       y2="37.810905"
       id="linearGradient4261"
       xlink:href="#linearGradient7450"
       gradientUnits="userSpaceOnUse" />
    <filter
       color-interpolation-filters="sRGB"
       id="filter4278">
      <feGaussianBlur
         id="feGaussianBlur4280"
         stdDeviation="1.8909375" />
    </filter>
    <clipPath
       id="clipPath4290">
      <path
         d="m 81.775868,33.016836 -1.698553,4.060937 -0.488099,2.909037 0.09754,1.112853 -4.392827,0.566188 -0.195242,-1.073807 -1.21047,-2.694274 -2.694273,-3.494749 -2.752856,0.741902 -0.585712,4.353794 0.292856,2.948084 0.370947,1.034757 -4.080463,1.698564 -0.468561,-0.995709 -1.874287,-2.284278 -3.514259,-2.674751 -2.459999,1.425232 0.566189,4.373317 1.034765,2.752847 0.624758,0.917615 -3.494751,2.694276 -0.722386,-0.839521 -2.401417,-1.737612 -4.080448,-1.659517 -2.010947,2.010945 1.679031,4.060937 1.718091,2.401418 0.839523,0.722379 -2.694273,3.514273 -0.898091,-0.62476 -2.772379,-1.054282 -4.353796,-0.566188 -1.425234,2.479514 2.655227,3.494748 2.303803,1.874279 0.976197,0.46857 -1.679046,4.080461 -1.03475,-0.370951 -2.948084,-0.292857 -4.353795,0.605237 -0.741909,2.733323 3.475227,2.694274 2.694273,1.229996 1.093334,0.195238 -0.585713,4.373317 -1.093333,-0.07809 -2.928561,0.468569 -4.060939,1.698567 0,2.850464 4.060939,1.698565 2.928561,0.488094 1.093333,-0.09763 0.585713,4.39284 -1.093334,0.195238 -2.694273,1.210471 -3.475227,2.694276 0.741909,2.752847 4.353795,0.585707 2.948084,-0.292851 1.03475,-0.370951 1.679046,4.080462 -0.976197,0.46857 -2.303803,1.87428 -2.655227,3.51428 1.425234,2.45998 4.353796,-0.56618 2.772379,-1.03476 0.898091,-0.62476 2.694273,3.49475 -0.839523,0.72237 -1.718091,2.40142 -1.679031,4.08046 2.010947,2.01094 4.080448,-1.67904 2.401417,-1.71808 0.722386,-0.83952 3.494751,2.69427 -0.624758,0.89809 -1.034765,2.77237 -0.566189,4.35379 2.459999,1.42524 3.514259,-2.65523 1.874287,-2.3038 0.468561,-0.97618 4.080463,1.67904 -0.370947,1.03475 -0.292856,2.94809 0.585712,4.35378 2.752856,0.74191 2.694273,-3.47522 1.21047,-2.69428 0.195242,-1.09333 4.392827,0.58571 -0.09754,1.09333 0.488099,2.92856 1.698553,4.06094 2.85047,0 1.698568,-4.06094 0.468576,-2.92856 -0.07803,-1.09333 4.373304,-0.58571 0.195242,1.09333 1.229993,2.69428 2.694288,3.47522 2.733318,-0.74191 0.605235,-4.35378 -0.292856,-2.94809 -0.370962,-1.03475 4.080456,-1.67904 0.46858,0.97618 1.87427,2.3038 3.49477,2.65523 2.47951,-1.42524 -0.56619,-4.35379 -1.05429,-2.77237 -0.62476,-0.89809 3.51427,-2.69427 0.72239,0.83952 2.40142,1.71808 4.06092,1.67904 2.01096,-2.01094 -1.65952,-4.08046 -1.73761,-2.40142 -0.83953,-0.72237 2.69428,-3.49475 0.91761,0.62476 2.75286,1.03476 4.3733,0.56618 1.42524,-2.45998 -2.67475,-3.51428 -2.28429,-1.87428 -0.9957,-0.46857 1.69857,-4.080462 1.03476,0.370951 2.94809,0.292851 4.35379,-0.585707 0.74188,-2.752847 -3.49473,-2.694276 -2.69428,-1.210471 -1.07381,-0.195238 0.56619,-4.39284 1.11284,0.09763 2.90906,-0.488094 4.06094,-1.698565 0,-2.850464 -4.06094,-1.698567 -2.90906,-0.468569 -1.11284,0.07809 -0.56619,-4.373317 1.07381,-0.195238 2.69428,-1.229996 3.49473,-2.694274 -0.74188,-2.733323 -4.35379,-0.605237 -2.94809,0.292857 -1.03476,0.370951 -1.69857,-4.080461 0.9957,-0.46857 2.28429,-1.874279 2.67475,-3.494748 -1.42524,-2.479514 -4.3733,0.566188 -2.75286,1.054282 -0.91761,0.62476 -2.69428,-3.514273 0.83953,-0.722379 1.7376,-2.401418 1.65952,-4.060937 -2.01095,-2.010945 -4.06094,1.659517 -2.4014,1.737612 -0.72239,0.839521 -3.51427,-2.694276 0.62476,-0.917615 1.05429,-2.752847 0.56619,-4.373317 -2.47953,-1.425232 -3.49475,2.674751 -1.87427,2.284278 -0.46858,0.995709 -4.080456,-1.698564 0.370962,-1.034757 0.292856,-2.948084 -0.605249,-4.353794 -2.733304,-0.741902 -2.694288,3.494749 -1.229993,2.694274 -0.195242,1.073807 -4.373304,-0.566188 0.07803,-1.112853 -0.468576,-2.909037 -1.698568,-4.060937 -2.85047,0 z m 1.425235,14.916135 c 4.750977,0 9.282836,0.915519 13.451857,2.557608 l -7.946159,15.404228 c -1.749348,-0.512444 -3.59136,-0.800473 -5.505698,-0.800473 -3.795817,0 -7.34471,1.097152 -10.347576,2.967607 L 61.061192,55.35199 c 6.162484,-4.653279 13.829225,-7.419019 22.139911,-7.419019 z m 20.109457,6.013309 c 10.02308,6.567441 16.65374,17.876539 16.65374,30.749883 0,0.961414 -0.0447,1.907509 -0.1172,2.850466 L 102.80294,84.46188 C 102.72986,78.338435 99.829872,72.896128 95.364385,69.350507 L 103.31056,53.94628 z m -47.755065,6.501404 11.792334,12.709953 c -2.365792,3.238888 -3.748546,7.223374 -3.748546,11.538526 0,1.593022 0.187454,3.144009 0.546652,4.627126 l -15.75566,7.223781 c -1.269446,-3.722349 -1.971887,-7.701628 -1.971887,-11.850907 0,-9.287001 3.449052,-17.776076 9.137107,-24.248479 z m 45.900295,31.374644 17.06376,3.104274 c -3.64624,12.612618 -13.8725,22.447098 -26.708484,25.537038 l -2.323311,-17.2004 c 5.478983,-1.8582 9.870965,-6.076523 11.968055,-11.440912 z m -34.186052,4.314745 c 3.350419,4.653757 8.698915,7.770707 14.779464,8.121867 l 2.323326,17.20041 c -0.389364,0.0122 -0.779091,0.0196 -1.171425,0.0196 -13.489301,0 -25.285027,-7.27633 -31.687025,-18.11802 l 15.75566,-7.223787 z"
         id="path4292"
         style="fill:#ffffff;fill-opacity:1;stroke:none" />
    </clipPath>
    <clipPath
       id="clipPath4300">
      <path
         d="m 81.882329,32.767073 -1.713399,4.09643 -0.492364,2.934461 0.09839,1.12258 -4.431221,0.571136 -0.196948,-1.083191 -1.22105,-2.717823 -2.717821,-3.525293 -2.776916,0.748386 -0.590831,4.391847 0.295416,2.97385 0.374189,1.043801 -4.116126,1.71341 -0.472656,-1.004412 -1.890669,-2.304242 -3.544973,-2.698129 -2.481501,1.437688 0.571138,4.41154 1.043809,2.776907 0.630218,0.925635 -3.525294,2.717824 -0.7287,-0.846858 -2.422406,-1.752799 -4.116111,-1.674021 -2.028522,2.028521 1.693705,4.096429 1.733107,2.422407 0.846861,0.728693 -2.717822,3.544988 -0.90594,-0.630221 -2.796609,-1.063497 -4.391848,-0.571136 -1.437692,2.501185 2.678434,3.525293 2.323939,1.89066 0.984729,0.472665 -1.693721,4.116124 -1.043794,-0.374193 -2.97385,-0.295416 -4.391848,0.610526 -0.748393,2.757212 3.505601,2.717823 2.717821,1.240746 1.102889,0.196944 -0.590831,4.41154 -1.102889,-0.07877 -2.954157,0.472665 -4.096432,1.713413 0,2.875377 4.096432,1.713411 2.954157,0.49236 1.102889,-0.09848 0.590831,4.431233 -1.102889,0.196944 -2.717821,1.221051 -3.505601,2.717824 0.748393,2.776908 4.391848,0.590831 2.97385,-0.29541 1.043794,-0.374199 1.693721,4.116129 -0.984729,0.47267 -2.323939,1.89065 -2.678434,3.545 1.437692,2.48148 4.391848,-0.57113 2.796609,-1.0438 0.90594,-0.63022 2.717822,3.52529 -0.846861,0.72869 -1.733107,2.4224 -1.693705,4.11613 2.028522,2.02852 4.116111,-1.69372 2.422406,-1.7331 0.7287,-0.84686 3.525294,2.71782 -0.630218,0.90594 -1.043809,2.7966 -0.571138,4.39185 2.481501,1.43769 3.544973,-2.67843 1.890669,-2.32394 0.472656,-0.98471 4.116126,1.69371 -0.374189,1.0438 -0.295416,2.97385 0.590831,4.39184 2.776916,0.74839 2.717821,-3.50559 1.22105,-2.71783 0.196948,-1.10289 4.431221,0.59083 -0.09839,1.10289 0.492364,2.95415 1.713399,4.09643 2.875383,0 1.713414,-4.09643 0.472671,-2.95415 -0.07872,-1.10289 4.411527,-0.59083 0.196949,1.10289 1.240742,2.71783 2.717836,3.50559 2.757208,-0.74839 0.610525,-4.39184 -0.295416,-2.97385 -0.374204,-1.0438 4.116116,-1.69371 0.47268,0.98471 1.89065,2.32394 3.52531,2.67843 2.50118,-1.43769 -0.57114,-4.39185 -1.0635,-2.7966 -0.63021,-0.90594 3.54498,-2.71782 0.72871,0.84686 2.42239,1.7331 4.09642,1.69372 2.02854,-2.02852 -1.67403,-4.11613 -1.75279,-2.4224 -0.84687,-0.72869 2.71783,-3.52529 0.92564,0.63022 2.77691,1.0438 4.41153,0.57113 1.43768,-2.48148 -2.69813,-3.545 -2.30424,-1.89065 -1.00441,-0.47267 1.71341,-4.116129 1.04381,0.374199 2.97385,0.29541 4.39185,-0.590831 0.74836,-2.776908 -3.52528,-2.717824 -2.71782,-1.221051 -1.08319,-0.196944 0.57114,-4.431233 1.12256,0.09848 2.93448,-0.49236 4.09643,-1.713411 0,-2.875377 -4.09643,-1.713413 -2.93448,-0.472665 -1.12256,0.07877 -0.57114,-4.41154 1.08319,-0.196944 2.71782,-1.240746 3.52528,-2.717823 -0.74836,-2.757212 -4.39185,-0.610526 -2.97385,0.295416 -1.04381,0.374193 -1.71341,-4.116124 1.00441,-0.472665 2.30424,-1.89066 2.69813,-3.525293 -1.43769,-2.501185 -4.41153,0.571136 -2.77691,1.063497 -0.92564,0.630221 -2.71782,-3.544988 0.84686,-0.728693 1.75279,-2.422407 1.67402,-4.096429 -2.02852,-2.028521 -4.09643,1.674021 -2.42239,1.752799 -0.7287,0.846858 -3.54499,-2.717824 0.63022,-0.925635 1.0635,-2.776907 0.57114,-4.41154 -2.5012,-1.437688 -3.52529,2.698129 -1.89065,2.304242 -0.47268,1.004412 -4.116116,-1.71341 0.374204,-1.043801 0.295416,-2.97385 -0.61054,-4.391847 -2.757193,-0.748386 -2.717836,3.525293 -1.240742,2.717823 -0.196949,1.083191 -4.411527,-0.571136 0.07872,-1.12258 -0.472671,-2.934461 -1.713414,-4.09643 -2.875383,0 z m 1.437692,15.046502 c 4.792501,0 9.363968,0.923521 13.569427,2.579962 l -8.01561,15.538862 C 87.109201,65.415476 85.25109,65.12493 83.320021,65.12493 c -3.828993,0 -7.408903,1.106741 -10.438015,2.993543 l -11.8954,-12.821036 c 6.216344,-4.693949 13.950092,-7.483862 22.333415,-7.483862 z m 20.285209,6.065866 c 10.11069,6.62484 16.7993,18.032781 16.7993,31.018638 0,0.969817 -0.0451,1.92418 -0.11822,2.875379 l -17.19313,-3.11171 c -0.0737,-6.176964 -2.99905,-11.666837 -7.50357,-15.243446 l 8.01562,-15.538861 z m -48.172441,6.558226 11.8954,12.821038 c -2.38647,3.267197 -3.781309,7.286508 -3.781309,11.639374 0,1.606945 0.189092,3.171488 0.55143,4.667568 l -15.893365,7.286917 c -1.280541,-3.754884 -1.989122,-7.768941 -1.989122,-11.954485 0,-9.36817 3.479197,-17.931439 9.216966,-24.460412 z m 46.301471,31.64886 17.21289,3.131405 C 115.26904,107.94079 104.9534,117.86122 92.005235,120.97817 l -2.343617,-17.35074 c 5.526869,-1.87444 9.957238,-6.129629 12.072652,-11.540903 z m -34.484845,4.352456 c 3.379701,4.694427 8.774943,7.838617 14.908637,8.192857 l 2.343631,17.35074 c -0.392766,0.0123 -0.7859,0.0198 -1.181662,0.0198 -13.607198,0 -25.50602,-7.33993 -31.963971,-18.27637 l 15.893365,-7.286927 z"
         id="path4302"
         style="fill:#ffffff;fill-opacity:1;stroke:none" />
    </clipPath>
    <filter
       color-interpolation-filters="sRGB"
       id="filter4308">
      <feGaussianBlur
         id="feGaussianBlur4310"
         stdDeviation="1.8975" />
    </filter>
    <filter
       color-interpolation-filters="sRGB"
       id="filter4325">
      <feGaussianBlur
         id="feGaussianBlur4327"
         stdDeviation="1.439999" />
    </filter>
    <radialGradient
       cx="56.055019"
       cy="55.978848"
       r="52.251602"
       fx="56.055019"
       fy="55.978848"
       id="radialGradient4338"
       xlink:href="#linearGradient7450"
       gradientUnits="userSpaceOnUse"
       gradientTransform="matrix(0.62429531,-0.62429531,0.39740012,0.39740012,-11.809656,57.707013)" />
    <linearGradient
       x1="50.760078"
       y1="42.239994"
       x2="113.84038"
       y2="130.51231"
       id="linearGradient4340"
       xlink:href="#linearGradient4282"
       gradientUnits="userSpaceOnUse"
       gradientTransform="matrix(0.68606059,0,0,0.68606059,6.974088,6.5532361)" />
    <linearGradient
       x1="80.875443"
       y1="82.61515"
       x2="82.573708"
       y2="84.937546"
       id="linearGradient4342"
       xlink:href="#linearGradient3298"
       gradientUnits="userSpaceOnUse" />
    <linearGradient
       x1="82.312332"
       y1="85.362457"
       x2="81.312866"
       y2="82.651672"
       id="linearGradient4344"
       xlink:href="#linearGradient3298"
       gradientUnits="userSpaceOnUse" />
    <clipPath
       id="clipPath4350">
      <rect
         width="68"
         height="68"
         rx="3"
         ry="3"
         x="84"
         y="14"
         id="rect4352"
         style="fill:#ffffff;fill-opacity:1;stroke:none" />
    </clipPath>
    <clipPath
       id="clipPath4354">
      <rect
         width="68"
         height="68"
         rx="3"
         ry="3"
         x="-36"
         y="14"
         id="rect4356"
         style="fill:#ffffff;fill-opacity:1;stroke:none" />
    </clipPath>
    <filter
       x="-0.168"
       y="-0.168"
       width="1.336"
       height="1.336"
       color-interpolation-filters="sRGB"
       id="filter3773">
      <feGaussianBlur
         id="feGaussianBlur3775"
         stdDeviation="5.04" />
    </filter>
    <linearGradient
       x1="45.447727"
       y1="92.539597"
       x2="45.447727"
       y2="7.0165396"
       id="ButtonShadow-0"
       gradientUnits="userSpaceOnUse"
       gradientTransform="matrix(1.0058652,0,0,0.994169,100,0)">
      <stop
         id="stop3750-8"
         style="stop-color:#000000;stop-opacity:1"
         offset="0" />
      <stop
         id="stop3752-5"
         style="stop-color:#000000;stop-opacity:0.58823532"
         offset="1" />
    </linearGradient>
    <linearGradient
       x1="32.251034"
       y1="6.1317081"
       x2="32.251034"
       y2="90.238609"
       id="linearGradient3780"
       xlink:href="#ButtonShadow-0"
       gradientUnits="userSpaceOnUse"
       gradientTransform="matrix(1.0238095,0,0,1.0119048,-1.1428571,-98.071429)" />
    <linearGradient
       x1="32.251034"
       y1="6.1317081"
       x2="32.251034"
       y2="90.238609"
       id="linearGradient3772"
       xlink:href="#ButtonShadow-0"
       gradientUnits="userSpaceOnUse"
       gradientTransform="matrix(1.0238095,0,0,1.0119048,-1.1428571,-98.071429)" />
    <linearGradient
       x1="32.251034"
       y1="6.1317081"
       x2="32.251034"
       y2="90.238609"
       id="linearGradient3725"
       xlink:href="#ButtonShadow-0"
       gradientUnits="userSpaceOnUse"
       gradientTransform="matrix(1.0238095,0,0,1.0119048,-1.1428571,-98.071429)" />
    <linearGradient
       x1="32.251034"
       y1="6.1317081"
       x2="32.251034"
       y2="90.238609"
       id="linearGradient3721"
       xlink:href="#ButtonShadow-0"
       gradientUnits="userSpaceOnUse"
       gradientTransform="translate(0,-97)" />
    <linearGradient
       x1="32.251034"
       y1="6.1317081"
       x2="32.251034"
       y2="90.238609"
       id="linearGradient3811"
       xlink:href="#ButtonShadow-0"
       gradientUnits="userSpaceOnUse"
       gradientTransform="matrix(1.0238095,0,0,1.0119048,-1.1428571,-98.071429)" />
  </defs>
  <metadata
     id="metadata2413">
    <rdf:RDF>
      <cc:Work
         rdf:about="">
        <dc:format>image/svg+xml</dc:format>
        <dc:type
           rdf:resource="http://purl.org/dc/dcmitype/StillImage" />
        <dc:title></dc:title>
      </cc:Work>
    </rdf:RDF>
  </metadata>
  <g
     id="layer6"
     style="display:inline">
    <path
       d="m 12,-95.03125 c -5.5110903,0 -10.03125,4.52016 -10.03125,10.03125 l 0,71 c 0,5.5110902 4.5201598,10.03125 10.03125,10.03125 l 72,0 c 5.51109,0 10.03125,-4.5201597 10.03125,-10.03125 l 0,-71 c 0,-5.51109 -4.52016,-10.03125 -10.03125,-10.03125 l -72,0 z"
       transform="scale(1,-1)"
       id="path3786"
       style="opacity:0.07999998;fill:url(#linearGradient3811);fill-opacity:1;fill-rule:nonzero;stroke:none;display:inline" />
    <path
       d="m 12,-94.03125 c -4.971633,0 -9.03125,4.059617 -9.03125,9.03125 l 0,71 c 0,4.9716329 4.0596171,9.03125 9.03125,9.03125 l 72,0 c 4.971633,0 9.03125,-4.059617 9.03125,-9.03125 l 0,-71 c 0,-4.971633 -4.059617,-9.03125 -9.03125,-9.03125 l -72,0 z"
       transform="scale(1,-1)"
       id="path3778"
       style="opacity:0.1;fill:url(#linearGradient3780);fill-opacity:1;fill-rule:nonzero;stroke:none;display:inline" />
    <path
       d="m 12,-93 c -4.4091333,0 -8,3.590867 -8,8 l 0,71 c 0,4.4091333 3.5908667,8 8,8 l 72,0 c 4.409133,0 8,-3.5908667 8,-8 l 0,-71 c 0,-4.409133 -3.590867,-8 -8,-8 l -72,0 z"
       transform="scale(1,-1)"
       id="path3770"
       style="opacity:0.2;fill:url(#linearGradient3772);fill-opacity:1;fill-rule:nonzero;stroke:none;display:inline" />
    <rect
       width="86"
       height="85"
       rx="7"
       ry="7"
       x="5"
       y="-92"
       transform="scale(1,-1)"
       id="rect3723"
       style="opacity:0.3;fill:url(#linearGradient3725);fill-opacity:1;fill-rule:nonzero;stroke:none;display:inline" />
    <rect
       width="84"
       height="84"
       rx="6"
       ry="6"
       x="6"
       y="-91"
       transform="scale(1,-1)"
       id="rect3716"
       style="opacity:0.45;fill:url(#linearGradient3721);fill-opacity:1;fill-rule:nonzero;stroke:none;display:inline" />
  </g>
  <g
     id="layer3"
     style="display:inline">
    <rect
       width="72"
       height="72"
       rx="7.5466671"
       ry="7.5213428"
       x="12"
       y="14"
       id="rect3232"
       style="fill:url(#linearGradient3880);fill-opacity:1;fill-rule:evenodd;stroke:none;display:inline" />
    <g
       transform="translate(-69,1)"
       clip-path="url(#clipPath4350)"
       id="g4329">
      <path
         style="font-size:medium;font-style:normal;font-variant:normal;font-weight:normal;font-stretch:normal;text-indent:0;text-align:start;text-decoration:none;line-height:normal;letter-spacing:normal;word-spacing:normal;text-transform:none;direction:ltr;block-progression:tb;writing-mode:lr-tb;text-anchor:start;color:#000000;fill:#000000;fill-opacity:1;stroke:none;stroke-width:1;marker:none;visibility:visible;display:inline;overflow:visible;filter:url(#filter4325);enable-background:accumulate;font-family:Abandoned Bitplane;-inkscape-font-specification:Abandoned Bitplane"
         d="M 62.78125 30.59375 L 62.65625 30.90625 L 61.5 33.6875 L 61.46875 33.75 L 61.46875 33.78125 L 61.125 35.78125 L 61.125 35.84375 L 61.125 35.90625 L 61.15625 36.21875 L 59.0625 36.46875 L 59.03125 36.21875 L 59.03125 36.15625 L 59 36.09375 L 58.15625 34.25 L 58.125 34.1875 L 58.09375 34.125 L 56.25 31.75 L 56.0625 31.46875 L 55.71875 31.5625 L 53.84375 32.0625 L 53.5 32.15625 L 53.46875 32.5 L 53.0625 35.46875 L 53.0625 35.53125 L 53.0625 35.59375 L 53.28125 37.625 L 53.28125 37.6875 L 53.28125 37.75 L 53.375 38 L 51.46875 38.78125 L 51.34375 38.5625 L 51.3125 38.5 L 51.28125 38.4375 L 50 36.875 L 49.96875 36.84375 L 49.90625 36.78125 L 47.5 34.96875 L 47.21875 34.75 L 46.9375 34.90625 L 45.25 35.90625 L 44.96875 36.0625 L 45 36.40625 L 45.40625 39.40625 L 45.40625 39.46875 L 45.4375 39.5 L 46.125 41.40625 L 46.15625 41.46875 L 46.1875 41.5 L 46.34375 41.75 L 44.6875 43.03125 L 44.5 42.8125 L 44.46875 42.75 L 44.4375 42.71875 L 42.78125 41.53125 L 42.71875 41.5 L 42.6875 41.46875 L 39.875 40.34375 L 39.5625 40.21875 L 39.34375 40.4375 L 37.9375 41.8125 L 37.71875 42.0625 L 37.84375 42.375 L 39 45.15625 L 39.03125 45.21875 L 39.0625 45.25 L 40.21875 46.90625 L 40.25 46.96875 L 40.3125 47 L 40.53125 47.1875 L 39.25 48.84375 L 39.03125 48.6875 L 38.96875 48.65625 L 38.9375 48.625 L 37.03125 47.90625 L 36.96875 47.875 L 36.90625 47.875 L 33.90625 47.5 L 33.59375 47.4375 L 33.40625 47.75 L 32.4375 49.4375 L 32.28125 49.71875 L 32.46875 50 L 34.28125 52.40625 L 34.34375 52.4375 L 34.375 52.46875 L 35.96875 53.78125 L 36 53.8125 L 36.0625 53.84375 L 36.3125 53.96875 L 35.53125 55.875 L 35.25 55.78125 L 35.1875 55.75 L 35.125 55.75 L 33.09375 55.5625 L 33.0625 55.53125 L 33 55.5625 L 30 55.96875 L 29.6875 56 L 29.59375 56.34375 L 29.0625 58.21875 L 29 58.53125 L 29.25 58.75 L 31.625 60.59375 L 31.6875 60.625 L 31.75 60.65625 L 33.59375 61.5 L 33.65625 61.53125 L 33.71875 61.53125 L 34 61.5625 L 33.71875 63.65625 L 33.4375 63.625 L 33.375 63.625 L 33.3125 63.625 L 31.3125 63.9375 L 31.25 63.96875 L 31.1875 63.96875 L 28.40625 65.15625 L 28.09375 65.28125 L 28.09375 65.59375 L 28.09375 67.5625 L 28.09375 67.90625 L 28.40625 68.03125 L 31.1875 69.1875 L 31.25 69.21875 L 31.3125 69.21875 L 33.3125 69.5625 L 33.375 69.5625 L 33.4375 69.5625 L 33.71875 69.53125 L 34 71.625 L 33.71875 71.65625 L 33.65625 71.65625 L 33.59375 71.6875 L 31.75 72.53125 L 31.6875 72.5625 L 31.625 72.59375 L 29.25 74.4375 L 29 74.65625 L 29.0625 74.96875 L 29.59375 76.84375 L 29.6875 77.1875 L 30 77.21875 L 33 77.625 L 33.0625 77.625 L 33.09375 77.625 L 35.125 77.4375 L 35.1875 77.40625 L 35.25 77.40625 L 35.53125 77.3125 L 36.3125 79.21875 L 36.0625 79.34375 L 36 79.375 L 35.96875 79.40625 L 34.375 80.6875 L 34.34375 80.75 L 34.28125 80.78125 L 32.46875 83.1875 L 32.28125 83.46875 L 32.4375 83.75 L 33.40625 85.4375 L 33.59375 85.71875 L 33.90625 85.6875 L 36.90625 85.28125 L 36.96875 85.28125 L 37 85.28125 L 38.90625 84.5625 L 38.96875 84.53125 L 39.03125 84.5 L 39.25 84.34375 L 40.53125 86 L 40.3125 86.1875 L 40.25 86.21875 L 40.21875 86.25 L 39.660156 87.050781 L 50.238281 87.050781 C 47.388481 85.098703 44.959197 82.570145 43.125 79.625 L 53.03125 75.0625 C 55.34936 78.08519 58.86648 80.11728 62.875 80.46875 L 63.763672 87.050781 L 69.951172 87.050781 L 68.96875 79.65625 C 72.55955 78.31785 75.40979 75.54173 76.90625 72.03125 L 87.65625 73.96875 C 85.962523 79.367336 82.480308 83.953188 77.902344 87.050781 L 88.542969 87.050781 L 87.96875 86.25 L 87.9375 86.21875 L 87.875 86.1875 L 87.65625 86 L 88.9375 84.34375 L 89.1875 84.5 L 89.21875 84.53125 L 89.28125 84.5625 L 91.1875 85.28125 L 91.21875 85.28125 L 91.28125 85.28125 L 94.28125 85.6875 L 94.625 85.71875 L 94.78125 85.4375 L 95.78125 83.75 L 95.9375 83.46875 L 95.75 83.1875 L 93.90625 80.78125 L 93.875 80.75 L 93.8125 80.6875 L 92.25 79.40625 L 92.1875 79.375 L 92.15625 79.34375 L 91.90625 79.21875 L 92.6875 77.3125 L 92.96875 77.40625 L 93 77.40625 L 93.0625 77.4375 L 95.09375 77.625 L 95.15625 77.625 L 95.21875 77.625 L 98.21875 77.21875 L 98.53125 77.1875 L 98.625 76.84375 L 99.125 74.96875 L 99.21875 74.65625 L 98.96875 74.4375 L 96.5625 72.59375 L 96.5 72.5625 L 96.46875 72.53125 L 94.59375 71.6875 L 94.5625 71.6875 L 94.5 71.65625 L 94.21875 71.59375 L 94.46875 69.53125 L 94.78125 69.5625 L 94.84375 69.5625 L 94.90625 69.5625 L 96.90625 69.21875 L 96.9375 69.21875 L 97 69.1875 L 99.78125 68.03125 L 100.09375 67.90625 L 100.09375 67.5625 L 100.09375 65.59375 L 100.09375 65.28125 L 99.78125 65.15625 L 97 63.96875 L 96.9375 63.96875 L 96.90625 63.9375 L 94.90625 63.625 L 94.84375 63.625 L 94.78125 63.625 L 94.46875 63.65625 L 94.21875 61.59375 L 94.5 61.53125 L 94.5625 61.53125 L 94.59375 61.5 L 96.46875 60.65625 L 96.5 60.625 L 96.5625 60.59375 L 98.96875 58.75 L 99.21875 58.53125 L 99.125 58.21875 L 98.625 56.34375 L 98.53125 56 L 98.21875 55.96875 L 95.21875 55.5625 L 95.15625 55.53125 L 95.09375 55.5625 L 93.0625 55.75 L 93 55.75 L 92.96875 55.78125 L 92.6875 55.875 L 91.90625 53.96875 L 92.15625 53.84375 L 92.1875 53.8125 L 92.25 53.75 L 93.8125 52.46875 L 93.875 52.4375 L 93.90625 52.40625 L 95.75 50 L 95.9375 49.71875 L 95.78125 49.4375 L 94.78125 47.75 L 94.625 47.4375 L 94.28125 47.5 L 91.28125 47.875 L 91.21875 47.875 L 91.1875 47.90625 L 89.28125 48.625 L 89.21875 48.65625 L 89.1875 48.6875 L 88.9375 48.84375 L 87.65625 47.1875 L 87.875 47 L 87.9375 46.96875 L 87.96875 46.90625 L 89.15625 45.25 L 89.1875 45.21875 L 89.21875 45.15625 L 90.34375 42.375 L 90.46875 42.0625 L 90.25 41.8125 L 88.875 40.4375 L 88.625 40.21875 L 88.3125 40.34375 L 85.53125 41.46875 L 85.46875 41.5 L 85.4375 41.53125 L 83.78125 42.71875 L 83.71875 42.75 L 83.6875 42.8125 L 83.5 43.03125 L 81.84375 41.75 L 82 41.5 L 82.03125 41.46875 L 82.0625 41.40625 L 82.78125 39.53125 L 82.8125 39.46875 L 82.8125 39.40625 L 83.1875 36.40625 L 83.25 36.0625 L 82.96875 35.90625 L 81.25 34.90625 L 80.96875 34.75 L 80.6875 34.96875 L 78.3125 36.78125 L 78.25 36.84375 L 78.21875 36.875 L 76.9375 38.4375 L 76.875 38.5 L 76.875 38.5625 L 76.75 38.78125 L 74.8125 38 L 74.90625 37.75 L 74.9375 37.6875 L 74.9375 37.625 L 75.15625 35.59375 L 75.15625 35.53125 L 75.15625 35.46875 L 74.71875 32.46875 L 74.6875 32.15625 L 74.375 32.0625 L 72.46875 31.5625 L 72.15625 31.46875 L 71.96875 31.75 L 70.09375 34.125 L 70.0625 34.1875 L 70.03125 34.25 L 69.1875 36.09375 L 69.1875 36.15625 L 69.15625 36.21875 L 69.125 36.46875 L 67.0625 36.21875 L 67.0625 35.90625 L 67.0625 35.84375 L 67.0625 35.8125 L 66.75 33.8125 L 66.75 33.75 L 66.71875 33.6875 L 65.53125 30.90625 L 65.40625 30.59375 L 65.09375 30.59375 L 63.125 30.59375 L 62.78125 30.59375 z M 64.09375 41.84375 C 67.09862 41.84375 69.96055 42.42385 72.625 43.40625 L 67.59375 53.125 C 66.47449 52.83296 65.30716 52.625 64.09375 52.625 C 61.55795 52.625 59.20657 53.37817 57.15625 54.5625 L 49.65625 46.53125 C 53.72652 43.59834 58.69644 41.84375 64.09375 41.84375 z M 78.09375 46.25 C 84.57306 50.71428 88.84375 58.13069 88.84375 66.59375 C 88.84375 67.05876 88.8397 67.5087 88.8125 67.96875 L 78 66 C 77.83063 61.95338 75.96601 58.38026 73.0625 55.9375 L 78.09375 46.25 z M 45.15625 50.71875 L 52.625 58.75 C 51.08752 60.99382 50.125 63.67291 50.125 66.59375 C 50.125 67.58636 50.2713 68.53254 50.46875 69.46875 L 40.53125 74.03125 C 39.7837 71.67385 39.34375 69.19657 39.34375 66.59375 C 39.34375 60.54587 41.55077 55.01845 45.15625 50.71875 z "
         transform="translate(69,-1)"
         id="path4312" />
      <path
         style="fill:url(#radialGradient4338);fill-opacity:1;stroke:url(#linearGradient4340);stroke-width:1;stroke-miterlimit:4;stroke-dasharray:none;stroke-opacity:1"
         d="M 63.125 29.089844 L 61.958984 31.878906 L 61.623047 33.876953 L 61.691406 34.642578 L 58.673828 35.03125 L 58.539062 34.292969 L 57.707031 32.443359 L 55.857422 30.041016 L 53.966797 30.550781 L 53.564453 33.542969 L 53.765625 35.566406 L 54.019531 36.277344 L 51.216797 37.445312 L 50.894531 36.759766 L 49.607422 35.191406 L 47.193359 33.353516 L 45.503906 34.333984 L 45.892578 37.337891 L 46.603516 39.228516 L 47.033203 39.859375 L 44.632812 41.708984 L 44.136719 41.132812 L 42.486328 39.939453 L 39.683594 38.798828 L 38.302734 40.179688 L 39.455078 42.970703 L 40.636719 44.619141 L 41.212891 45.115234 L 39.361328 47.529297 L 38.744141 47.099609 L 36.839844 46.376953 L 33.849609 45.986328 L 32.871094 47.689453 L 34.695312 50.091797 L 36.277344 51.378906 L 36.947266 51.699219 L 35.794922 54.503906 L 35.083984 54.248047 L 33.058594 54.046875 L 30.068359 54.462891 L 29.558594 56.339844 L 31.945312 58.191406 L 33.796875 59.035156 L 34.546875 59.169922 L 34.144531 62.173828 L 33.394531 62.121094 L 31.382812 62.441406 L 28.59375 63.609375 L 28.59375 65.566406 L 31.382812 66.734375 L 33.394531 67.068359 L 34.144531 67.001953 L 34.546875 70.019531 L 33.796875 70.152344 L 31.945312 70.984375 L 29.558594 72.835938 L 30.068359 74.726562 L 33.058594 75.128906 L 35.083984 74.927734 L 35.794922 74.671875 L 36.947266 77.474609 L 36.277344 77.796875 L 34.695312 79.083984 L 32.871094 81.498047 L 33.849609 83.1875 L 36.839844 82.798828 L 38.744141 82.087891 L 39.361328 81.660156 L 41.212891 84.060547 L 40.636719 84.556641 L 39.455078 86.205078 L 38.939453 87.457031 L 53.388672 87.457031 C 48.775519 85.288176 44.918086 81.774418 42.339844 77.408203 L 53.162109 72.447266 C 55.463479 75.643883 59.13583 77.784179 63.3125 78.025391 L 64.587891 87.457031 L 69.789062 87.457031 L 68.421875 77.341797 C 72.185335 76.065422 75.204061 73.167169 76.644531 69.482422 L 88.365234 71.615234 C 86.337506 78.629292 81.345433 84.390463 74.839844 87.457031 L 88.677734 87.457031 L 88.677734 86.099609 L 87.560547 84.556641 L 86.982422 84.060547 L 88.677734 81.863281 L 88.677734 66.435547 L 77.568359 64.427734 C 77.518159 60.221599 75.526284 56.482327 72.458984 54.046875 L 77.917969 43.466797 C 83.252787 46.962337 87.176061 52.417299 88.677734 58.808594 L 88.677734 47.326172 L 86.982422 45.115234 L 87.560547 44.619141 L 88.677734 43.076172 L 88.677734 38.964844 L 88.511719 38.798828 L 85.722656 39.939453 L 84.072266 41.132812 L 83.576172 41.708984 L 81.162109 39.859375 L 81.591797 39.228516 L 82.316406 37.337891 L 82.705078 34.333984 L 81.001953 33.353516 L 78.601562 35.191406 L 77.314453 36.759766 L 76.992188 37.445312 L 74.189453 36.277344 L 74.443359 35.566406 L 74.644531 33.542969 L 74.230469 30.550781 L 72.351562 30.041016 L 70.501953 32.443359 L 69.65625 34.292969 L 69.523438 35.03125 L 66.519531 34.642578 L 66.572266 33.876953 L 66.25 31.878906 L 65.083984 29.089844 L 63.125 29.089844 z M 64.105469 39.335938 C 67.368869 39.335938 70.48009 39.963862 73.34375 41.091797 L 67.886719 51.673828 C 66.685109 51.321835 65.420409 51.123047 64.105469 51.123047 C 61.498159 51.123047 59.058734 51.877312 56.996094 53.162109 L 48.896484 44.431641 C 53.129434 41.235349 58.396939 39.335936 64.105469 39.335938 z M 45.115234 47.931641 L 53.214844 56.662109 C 51.589804 58.88687 50.640625 61.623855 50.640625 64.587891 C 50.640625 65.682122 50.768895 66.746886 51.015625 67.765625 L 40.193359 72.728516 C 39.321389 70.17167 38.839844 67.43799 38.839844 64.587891 C 38.839844 58.20874 41.208164 52.377472 45.115234 47.931641 z "
         transform="translate(69,-1)"
         id="path6159" />
      <path
         d="m 83.038866,84.007065 a 1.2367492,1.2367492 0 1 1 -2.473499,0 1.2367492,1.2367492 0 1 1 2.473499,0 z"
         transform="matrix(2.2107174,0,0,2.2107174,-47.74347,-122.1214)"
         id="path7458"
         style="fill:#b8b8b8;fill-opacity:1;fill-rule:nonzero;stroke:url(#linearGradient4342);stroke-width:0.45234182;stroke-linecap:butt;stroke-linejoin:round;stroke-miterlimit:4;stroke-opacity:1;stroke-dasharray:none;stroke-dashoffset:0" />
      <path
         d="m 83.038866,84.007065 a 1.2367492,1.2367492 0 1 1 -2.473499,0 1.2367492,1.2367492 0 1 1 2.473499,0 z"
         transform="matrix(5.7825105,0,0,5.7825105,-339.9237,-422.17725)"
         id="path7546"
         style="fill:none;stroke:url(#linearGradient4344);stroke-width:0.34587052;stroke-linecap:butt;stroke-linejoin:round;stroke-miterlimit:4;stroke-opacity:1;stroke-dasharray:none;stroke-dashoffset:0" />
      <path
         d="m 82.5625,33.9375 -1.375,3.28125 -0.4375,2.5 0,0.0625 0.09375,1.0625 a 1.0934898,1.0934898 0 0 1 -0.96875,1.1875 l -4.40625,0.5625 A 1.0934898,1.0934898 0 0 1 74.28125,41.6875 L 74.15625,40.875 74.125,40.8125 73,38.3125 70.8125,35.5 69.5,35.84375 l -0.5,3.5625 0.28125,2.625 0.3125,0.90625 A 1.0934898,1.0934898 0 0 1 69,44.3125 l -4.0625,1.71875 A 1.0934898,1.0934898 0 0 1 63.5,45.5 L 63.0625,44.5625 63.03125,44.5 l -1.625,-1.9375 -2.875,-2.1875 -1.1875,0.6875 0.4375,3.5625 0.9375,2.46875 0.5625,0.8125 a 1.0934898,1.0934898 0 0 1 -0.25,1.5 l -3.5,2.71875 a 1.0934898,1.0934898 0 0 1 -1.5,-0.15625 l -0.6875,-0.78125 -0.03125,-0.0625 -2.15625,-1.53125 -3.1875,-1.3125 -1.03125,1 1.375,3.3125 1.46875,2.0625 0.84375,0.71875 a 1.0934898,1.0934898 0 0 1 0.15625,1.5 l -2.6875,3.5 a 1.0934898,1.0934898 0 0 1 -1.5,0.25 l -0.8125,-0.5625 -2.5,-0.96875 -3.53125,-0.4375 -0.6875,1.21875 2.15625,2.84375 1.0625,0.875 0.0625,0.03125 7.3125,3.53125 c 1.417358,-2.71991 3.120343,-5.281411 5.125,-7.5625 a 1.0934898,1.0934898 0 0 1 1.625,-0.03125 l 11.8125,12.71875 a 1.0934898,1.0934898 0 0 1 0.0625,1.40625 c -0.437189,0.598532 -0.762117,1.254298 -1.125,1.90625 L 82.5625,83.03125 86.71875,66.5 c -1.128843,-0.223383 -2.251864,-0.4375 -3.4375,-0.4375 -3.590188,2e-6 -6.97302,1.043818 -9.8125,2.8125 a 1.0934898,1.0934898 0 0 1 -1.375,-0.1875 L 60.28125,55.96875 a 1.0934898,1.0934898 0 0 1 0.15625,-1.625 c 6.352073,-4.796435 14.279607,-7.65625 22.84375,-7.65625 2.819095,10e-7 5.547887,0.380143 8.1875,0.96875 l 2.5,-9.90625 -0.4375,0.5625 -1.125,2.5 -0.03125,0.0625 -0.15625,0.84375 a 1.0934898,1.0934898 0 0 1 -1.1875,0.875 l -4.375,-0.5625 a 1.0934898,1.0934898 0 0 1 -0.96875,-1.1875 l 0.09375,-0.9375 -0.46875,-2.78125 0,-0.03125 -1.34375,-3.15625 -1.40625,0 z m 1.40625,52.25 -4.15625,16.53125 c 0.790623,0.16027 1.570607,0.32855 2.375,0.375 a 1.0934898,1.0934898 0 0 1 1.03125,0.9375 l 2.3125,17.21875 a 1.0934898,1.0934898 0 0 1 -1.0625,1.25 c -0.434591,0.0136 -0.817403,0 -1.1875,0 -2.826956,0 -5.569712,-0.37984 -8.21875,-0.96875 l -2.5,9.9375 0.4375,-0.5625 1.125,-2.5 0.15625,-0.90625 a 1.0934898,1.0934898 0 0 1 1.1875,-0.90625 l 4.40625,0.5625 a 1.0934898,1.0934898 0 0 1 0.96875,1.1875 L 80.75,129.375 l 0,0.0625 0.4375,2.53125 1.375,3.28125 1.40625,0 1.34375,-3.15625 0,-0.0312 0.4375,-2.8125 -0.0625,-0.90625 a 1.0934898,1.0934898 0 0 1 0.96875,-1.1875 l 4.375,-0.5625 a 1.0934898,1.0934898 0 0 1 1.1875,0.875 l 0.15625,0.875 0.03125,0.0625 1.125,2.5 2.15625,2.78125 1.34375,-0.375 0.5,-3.53125 -0.28125,-2.625 -0.3125,-0.9375 a 1.0934898,1.0934898 0 0 1 0.625,-1.375 l 4.09375,-1.65625 a 1.0934898,1.0934898 0 0 1 1.375,0.53125 l 0.34375,0.75 0.0625,0.0625 1.71875,2.125 2.84375,2.15625 1.1875,-0.6875 -0.4375,-3.53125 -0.96875,-2.5 -0.5625,-0.8125 a 1.0934898,1.0934898 0 0 1 0.25,-1.5 L 111,117.09375 a 1.0934898,1.0934898 0 0 1 1.5,0.15625 l 0.71875,0.84375 2.0625,1.46875 3.28125,1.34375 1.03125,-1 -1.375,-3.3125 -1.46875,-2.0625 -0.84375,-0.71875 a 1.0934898,1.0934898 0 0 1 -0.15625,-1.5 l 2.6875,-3.5 a 1.0934898,1.0934898 0 0 1 1.46875,-0.25 l 0.71875,0.5 0.0625,0.0312 2.46875,0.9375 0.0937,0 3.5625,0.5 0.6875,-1.1875 -2.1875,-2.875 -0.96875,-0.84375 -0.0625,-0.0312 -7.5,-3.59375 c -4.99661,9.59978 -13.85116,16.87521 -24.625,19.46875 A 1.0934898,1.0934898 0 0 1 90.8125,120.5625 l -2.34375,-17.21875 a 1.0934898,1.0934898 0 0 1 0.75,-1.1875 c 4.362617,-1.47958 7.933576,-4.599075 10.15625,-8.5625 L 83.96875,86.1875 z"
         transform="matrix(0.68093886,0,0,0.68093886,76.36876,5.7773746)"
         clip-path="url(#clipPath4300)"
         id="path7661"
         style="opacity:0.5;fill:#ffffff;fill-opacity:1;fill-rule:nonzero;stroke:none;filter:url(#filter4308)" />
    </g>
    <g
       transform="translate(50,0)"
       clip-path="url(#clipPath4354)"
       id="g4248">
      <path
         style="fill:#000000;fill-opacity:1;stroke:none;filter:url(#filter4244)"
         d="M 39.986328 10.285156 C 40.445485 16.994224 38.13604 23.857443 33.03125 29 C 26.300127 35.780929 16.542014 37.727583 8.0546875 34.855469 L 8.0546875 49.044922 L 9.375 47.3125 L 9.40625 47.25 L 9.4375 47.21875 L 10.34375 45.1875 L 10.375 45.125 L 10.375 45.0625 L 10.4375 44.71875 L 12.78125 45.03125 L 12.75 45.375 L 12.75 45.4375 L 12.75 45.5 L 13.125 47.6875 L 13.15625 47.75 L 13.15625 47.78125 L 14.4375 50.84375 L 14.5625 51.15625 L 14.90625 51.125 L 17.03125 51.125 L 17.375 51.125 L 17.5 50.8125 L 18.75 47.78125 L 18.78125 47.71875 L 18.78125 47.65625 L 19.125 45.46875 L 19.15625 45.40625 L 19.125 45.34375 L 19.09375 45 L 21.4375 44.6875 L 21.5 45.03125 L 21.53125 45.09375 L 21.5625 45.15625 L 22.46875 47.15625 L 22.5 47.1875 L 22.53125 47.25 L 24.5625 49.875 L 24.75 50.125 L 25.0625 50.03125 L 27.125 49.5 L 27.46875 49.40625 L 27.5 49.0625 L 27.9375 45.78125 L 27.9375 45.71875 L 27.9375 45.65625 L 27.6875 43.46875 L 27.6875 43.40625 L 27.65625 43.34375 L 27.53125 43 L 29.71875 42.125 L 29.875 42.4375 L 29.90625 42.46875 L 29.9375 42.53125 L 31.375 44.25 L 31.40625 44.28125 L 31.4375 44.3125 L 34.0625 46.28125 L 34.34375 46.5 L 34.625 46.34375 L 36.46875 45.25 L 36.75 45.09375 L 36.71875 44.75 L 36.28125 41.5 L 36.28125 41.4375 L 36.25 41.375 L 35.46875 39.3125 L 35.4375 39.25 L 35.40625 39.21875 L 35.21875 38.90625 L 37.09375 37.5 L 37.3125 37.75 L 37.34375 37.8125 L 37.40625 37.84375 L 39.1875 39.125 L 39.25 39.15625 L 39.3125 39.15625 L 42.34375 40.40625 L 42.65625 40.53125 L 42.90625 40.3125 L 44.40625 38.78125 L 44.65625 38.5625 L 44.5 38.25 L 43.25 35.1875 L 43.21875 35.15625 L 43.1875 35.09375 L 41.90625 33.3125 L 41.84375 33.25 L 41.8125 33.21875 L 41.53125 33 L 42.96875 31.125 L 43.25 31.3125 L 43.3125 31.34375 L 43.375 31.34375 L 45.4375 32.125 L 45.46875 32.15625 L 45.53125 32.15625 L 48.8125 32.5625 L 49.15625 32.625 L 49.3125 32.3125 L 50.375 30.46875 L 50.53125 30.1875 L 50.34375 29.90625 L 48.34375 27.3125 L 48.3125 27.25 L 48.25 27.21875 L 46.53125 25.8125 L 46.5 25.78125 L 46.4375 25.75 L 46.125 25.59375 L 47 23.4375 L 47.34375 23.53125 L 47.40625 23.5625 L 47.4375 23.5625 L 49.65625 23.78125 L 49.71875 23.78125 L 49.75 23.78125 L 53.03125 23.34375 L 53.375 23.3125 L 53.4375 22.96875 L 54 20.90625 L 54.09375 20.5625 L 53.8125 20.375 L 51.1875 18.375 L 51.15625 18.3125 L 51.09375 18.3125 L 49.09375 17.40625 L 49.03125 17.375 L 48.96875 17.375 L 48.625 17.3125 L 48.90625 14.96875 L 49.25 15 L 49.3125 15 L 49.375 15 L 51.5625 14.625 L 51.625 14.625 L 51.6875 14.59375 L 54.71875 13.3125 L 55.03125 13.1875 L 55.03125 12.84375 L 55.03125 10.71875 L 55.03125 10.375 L 54.806641 10.285156 L 39.986328 10.285156 z "
         transform="translate(-50,0)"
         id="path4226" />
      <g
         transform="matrix(0.33201642,0.32957802,-0.32957802,0.33201642,-34.178641,9.9231531)"
         id="g2645"
         style="fill:url(#radialGradient4259);fill-opacity:1;stroke:url(#linearGradient4261);stroke-width:1.45759726">
        <path
           style="fill:url(#radialGradient4255);fill-opacity:1;stroke:url(#linearGradient4257);stroke-width:1.00000012"
           d="M 38.511719 11.146484 C 38.226083 17.033377 35.850274 22.837318 31.375 27.345703 C 25.294542 33.471146 16.794321 35.735291 8.9160156 34.144531 L 8.9160156 42.283203 L 11.314453 42.595703 L 11.255859 43.414062 L 11.628906 45.595703 L 12.898438 48.638672 L 15.035156 48.615234 L 16.296875 45.578125 L 16.638672 43.378906 L 16.574219 42.560547 L 19.847656 42.125 L 20.001953 42.941406 L 20.919922 44.939453 L 22.945312 47.554688 L 25.003906 47.001953 L 25.431641 43.710938 L 25.197266 41.513672 L 24.935547 40.740234 L 27.978516 39.470703 L 28.330078 40.212891 L 29.746094 41.919922 L 32.376953 43.896484 L 34.222656 42.830078 L 33.785156 39.556641 L 32.990234 37.498047 L 32.517578 36.816406 L 35.146484 34.806641 L 35.679688 35.425781 L 37.488281 36.707031 L 40.541016 37.955078 L 42.050781 36.433594 L 40.78125 33.390625 L 39.486328 31.591797 L 38.863281 31.0625 L 40.853516 28.417969 L 41.539062 28.884766 L 43.603516 29.666016 L 46.878906 30.078125 L 47.933594 28.224609 L 45.9375 25.609375 L 44.21875 24.205078 L 43.474609 23.859375 L 44.722656 20.808594 L 45.496094 21.0625 L 47.695312 21.283203 L 50.96875 20.845703 L 51.521484 18.767578 L 48.890625 16.759766 L 46.886719 15.857422 L 46.068359 15.708984 L 46.480469 12.433594 L 47.298828 12.490234 L 49.496094 12.134766 L 51.824219 11.146484 L 38.511719 11.146484 z "
           transform="matrix(1.5170502,-1.5059087,1.5059087,1.5170502,-38.945159,8.7716004)"
           id="path2647" />
      </g>
      <path
         d="m 17.875,-29.21875 c 12.794439,0 24.064539,6.390407 30.96875,16.09375 L 55.375,-17.34375 52.65625,-20.875 c -0.648143,-0.846832 -0.524897,-2.051902 0.28125,-2.75 l 0.75,-0.625 1.59375,-2.21875 1.21875,-3 -0.28125,-0.28125 -2.9375,1.21875 -2.34375,1.65625 -0.5625,0.65625 c -0.698098,0.806147 -1.903168,0.929393 -2.75,0.28125 L 43.78125,-28.875 C 31.788135,-55.428895 -61.66477,-21.332002 17.875,-29.21875 z M 48.84375,30.8125 C 41.939539,40.515843 30.669439,46.90625 17.875,46.90625 L 37.59375,50.125 c 1.001456,-0.431143 2.164238,0.01182 2.625,1 L 40.625,52 l 1.75,2.15625 2.53125,1.90625 0.375,-0.21875 -0.40625,-3.21875 -0.96875,-2.5 -0.5625,-0.8125 c -0.612064,-0.886387 -0.419417,-2.097314 0.4375,-2.75 L 47.625,43.625 c 0.846832,-0.648143 2.051902,-0.524897 2.75,0.28125 l 0.5625,0.65625 2.34375,1.65625 2.9375,1.21875 0.28125,-0.28125 -1.21875,-3 -1.59375,-2.21875 -0.75,-0.625 c -0.806147,-0.698098 -0.929393,-1.903168 -0.28125,-2.75 L 55.375,35.03125 48.84375,30.8125 z"
         transform="matrix(0.48690276,0.48332687,-0.48332687,0.48690276,-38.612674,-3.0294512)"
         id="path7797"
         style="opacity:0.2;fill:#000000;fill-opacity:1;fill-rule:nonzero;stroke:none;filter:url(#filter7809)" />
      <path
         d="m 59.5,-9.5625 -6.5625,3.25 c 2.020989,4.6571765 3.21875,9.7663981 3.21875,15.15625 C 56.156249,14.233601 54.958489,19.342823 52.9375,24 l 6.5625,3.25 1.34375,-3.21875 c 0.446258,-1.090854 1.669216,-1.640498 2.78125,-1.25 l 0.96875,0.34375 2.53125,0.25 3.09375,-0.4375 0.0625,-0.15625 -2.40625,-1.8125 -2.5,-1.15625 -0.9375,-0.15625 c -1.169193,-0.219106 -1.955971,-1.323355 -1.78125,-2.5 L 63.3125,12.375 c 0.159005,-1.165761 1.202451,-2.003264 2.375,-1.90625 l 0.9375,0.0625 2.71875,-0.4375 2.75,-1.15625 0,-0.1875 -2.75,-1.15625 -2.71875,-0.4375 -0.9375,0.0625 C 64.514951,7.3157642 63.471505,6.4782615 63.3125,5.3125 L 62.65625,0.53125 c -0.174721,-1.17664491 0.612057,-2.2808942 1.78125,-2.5 l 0.9375,-0.15625 2.5,-1.15625 2.40625,-1.8125 -0.0625,-0.15625 -3.09375,-0.4375 -2.53125,0.25 -0.96875,0.34375 c -1.112034,0.3904983 -2.334992,-0.1591458 -2.78125,-1.25 L 59.5,-9.5625 z"
         transform="matrix(0.48690276,0.48332687,-0.48332687,0.48690276,-38.612674,-3.0294512)"
         id="path7803"
         style="opacity:0.5;fill:#ffffff;fill-opacity:1;fill-rule:nonzero;stroke:none;filter:url(#filter7813)" />
      <rect
         style="opacity:1;fill:#ffffff;fill-opacity:1;fill-rule:evenodd;stroke:none;stroke-width:1.60000002;stroke-miterlimit:4;stroke-dasharray:none;stroke-opacity:1"
         id="rect4262"
         width="54.363327"
         height="81.113541"
         x="-97.460052"
         y="-16.753569"
         rx="0"
         ry="0" />
    </g>
    <path
       d="m 17,12 c -2.735406,0 -5,2.264594 -5,5 l 0,62 c 0,2.735406 2.264594,5 5,5 l 62,0 c 2.735406,0 5,-2.264594 5,-5 l 0,-62 c 0,-2.735406 -2.264594,-5 -5,-5 l -62,0 z m 0,4 62,0 c 0.588594,0 1,0.411406 1,1 l 0,62 c 0,0.588594 -0.411406,1 -1,1 l -62,0 c -0.588594,0 -1,-0.411406 -1,-1 l 0,-62 c 0,-0.588594 0.411406,-1 1,-1 z"
       clip-path="url(#clipPath3918)"
       id="rect3916"
       style="font-size:medium;font-style:normal;font-variant:normal;font-weight:normal;font-stretch:normal;text-indent:0;text-align:start;text-decoration:none;line-height:normal;letter-spacing:normal;word-spacing:normal;text-transform:none;direction:ltr;block-progression:tb;writing-mode:lr-tb;text-anchor:start;color:#000000;fill:#000000;fill-opacity:1;stroke:none;stroke-width:2;marker:none;visibility:visible;display:inline;overflow:visible;filter:url(#filter3773);enable-background:accumulate;font-family:Abandoned Bitplane;-inkscape-font-specification:Abandoned Bitplane" />
    <path
       d="m 17,14 c -1.662,0 -3,1.338 -3,3 l 0,62 c 0,1.662 1.338,3 3,3 l 62,0 c 1.662,0 3,-1.338 3,-3 l 0,-62 c 0,-1.662 -1.338,-3 -3,-3 l -62,0 z m 0,1.78125 62,0 c 0.703602,0 1.21875,0.515148 1.21875,1.21875 l 0,62 c 0,0.703602 -0.515148,1.21875 -1.21875,1.21875 l -62,0 c -0.703602,0 -1.21875,-0.515148 -1.21875,-1.21875 l 0,-62 c 0,-0.703602 0.515148,-1.21875 1.21875,-1.21875 z"
       id="rect3784"
       style="opacity:0.15;fill:#000000;fill-opacity:1;stroke:none" />
    <path
       d="m 17,14 c -1.662,0 -3,1.338 -3,3 l 0,62 c 0,1.662 1.338,3 3,3 l 62,0 c 1.662,0 3,-1.338 3,-3 l 0,-62 c 0,-1.662 -1.338,-3 -3,-3 l -62,0 z m 0,1 62,0 c 1.119848,0 2,0.880152 2,2 l 0,62 c 0,1.119848 -0.880152,2 -2,2 l -62,0 c -1.119848,0 -2,-0.880152 -2,-2 l 0,-62 c 0,-1.119848 0.880152,-2 2,-2 z"
       id="rect3777"
       style="opacity:0.2;fill:#000000;fill-opacity:1;stroke:none" />
  </g>
  <g
     id="layer4" />
  <g
     id="layer1">
    <path
       d="M 12,6 C 8.676,6 6,8.676 6,12 l 0,72 c 0,3.324 2.676,6 6,6 l 72,0 c 3.324,0 6,-2.676 6,-6 L 90,12 C 90,8.676 87.324,6 84,6 L 12,6 z m 5,7 62,0 c 2.216001,0 4,1.784 4,4 l 0,62 c 10e-7,2.216001 -1.784,4 -4,4 l -62,0 c -2.215999,10e-7 -4,-1.784 -4,-4 l 0,-62 c 0,-2.215999 1.784,-4 4,-4 z"
       id="rect2419"
       style="fill:url(#linearGradient2912);fill-opacity:1;fill-rule:nonzero;stroke:none;display:inline" />
    <path
       d="M 12,6 C 8.676,6 6,8.676 6,12 l 0,2 0,68 0,2 c 0,0.334721 0.04135,0.6507 0.09375,0.96875 0.0487,0.295596 0.09704,0.596915 0.1875,0.875 0.00988,0.03038 0.020892,0.0636 0.03125,0.09375 0.098865,0.287771 0.2348802,0.547452 0.375,0.8125 0.1445918,0.273507 0.3156161,0.535615 0.5,0.78125 0.1843839,0.245635 0.3737765,0.473472 0.59375,0.6875 0.439947,0.428056 0.94291,0.814526 1.5,1.09375 0.278545,0.139612 0.5734731,0.246947 0.875,0.34375 -0.2562018,-0.100222 -0.4867109,-0.236272 -0.71875,-0.375 -0.00741,-0.0044 -0.023866,0.0045 -0.03125,0 -0.031933,-0.0193 -0.062293,-0.04251 -0.09375,-0.0625 -0.120395,-0.0767 -0.2310226,-0.163513 -0.34375,-0.25 -0.1061728,-0.0808 -0.2132809,-0.161112 -0.3125,-0.25 C 8.4783201,88.557317 8.3087904,88.373362 8.15625,88.1875 8.0486711,88.057245 7.9378561,87.922215 7.84375,87.78125 7.818661,87.74287 7.805304,87.69538 7.78125,87.65625 7.716487,87.553218 7.6510225,87.451733 7.59375,87.34375 7.4927417,87.149044 7.3880752,86.928049 7.3125,86.71875 7.30454,86.69694 7.288911,86.6782 7.28125,86.65625 7.2494249,86.5643 7.2454455,86.469419 7.21875,86.375 7.1884177,86.268382 7.1483606,86.171969 7.125,86.0625 7.0521214,85.720988 7,85.364295 7,85 L 7,83 7,15 7,13 C 7,10.218152 9.2181517,8 12,8 l 2,0 68,0 2,0 c 2.781848,0 5,2.218152 5,5 l 0,2 0,68 0,2 c 0,0.364295 -0.05212,0.720988 -0.125,1.0625 -0.04415,0.206893 -0.08838,0.397658 -0.15625,0.59375 -0.0077,0.02195 -0.0233,0.04069 -0.03125,0.0625 -0.06274,0.173739 -0.138383,0.367449 -0.21875,0.53125 -0.04158,0.0828 -0.07904,0.169954 -0.125,0.25 -0.0546,0.09721 -0.126774,0.18835 -0.1875,0.28125 -0.09411,0.140965 -0.204921,0.275995 -0.3125,0.40625 -0.143174,0.17445 -0.303141,0.346998 -0.46875,0.5 -0.01117,0.0102 -0.01998,0.02115 -0.03125,0.03125 -0.138386,0.125556 -0.285091,0.234436 -0.4375,0.34375 -0.102571,0.07315 -0.204318,0.153364 -0.3125,0.21875 -0.0074,0.0045 -0.02384,-0.0044 -0.03125,0 -0.232039,0.138728 -0.462548,0.274778 -0.71875,0.375 0.301527,-0.0968 0.596455,-0.204138 0.875,-0.34375 0.55709,-0.279224 1.060053,-0.665694 1.5,-1.09375 0.219973,-0.214028 0.409366,-0.441865 0.59375,-0.6875 0.184384,-0.245635 0.355408,-0.507743 0.5,-0.78125 0.14012,-0.265048 0.276135,-0.524729 0.375,-0.8125 0.01041,-0.03078 0.02133,-0.06274 0.03125,-0.09375 0.09046,-0.278085 0.1388,-0.579404 0.1875,-0.875 C 89.95865,84.6507 90,84.334721 90,84 l 0,-2 0,-68 0,-2 C 90,8.676 87.324,6 84,6 L 12,6 z"
       id="rect3728"
       style="opacity:0.5;fill:url(#linearGradient3188-8);fill-opacity:1;fill-rule:nonzero;stroke:none;display:inline" />
    <path
       d="m 17,84 c -2.752703,0 -5,-2.247297 -5,-5 l 0,-62 c 0,-2.752703 2.247298,-5 5,-5 l 62,0 c 2.752703,0 5.000001,2.247297 5,5 l 0,62 c 0,2.752703 -2.247297,5 -5,5 l -62,0 z m 0,-2 62,0 c 1.679298,0 3,-1.320703 3,-3 l 0,-62 c 10e-7,-1.679297 -1.320703,-3 -3,-3 l -62,0 c -1.679296,0 -3,1.320703 -3,3 l 0,62 c 0,1.679297 1.320703,3 3,3 z"
       id="rect3425"
       style="fill:url(#linearGradient3279);fill-opacity:1;fill-rule:nonzero;stroke:none;display:inline" />
    <path
       d="M 12,90 C 8.676,90 6,87.324 6,84 L 6,82 6,14 6,12 c 0,-0.334721 0.04135,-0.6507 0.09375,-0.96875 0.0487,-0.295596 0.09704,-0.596915 0.1875,-0.875 C 6.29113,10.12587 6.302142,10.09265 6.3125,10.0625 6.411365,9.774729 6.5473802,9.515048 6.6875,9.25 6.8320918,8.976493 7.0031161,8.714385 7.1875,8.46875 7.3718839,8.223115 7.5612765,7.995278 7.78125,7.78125 8.221197,7.353194 8.72416,6.966724 9.28125,6.6875 9.559795,6.547888 9.8547231,6.440553 10.15625,6.34375 9.9000482,6.443972 9.6695391,6.580022 9.4375,6.71875 c -0.00741,0.0044 -0.023866,-0.0045 -0.03125,0 -0.031933,0.0193 -0.062293,0.04251 -0.09375,0.0625 -0.120395,0.0767 -0.2310226,0.163513 -0.34375,0.25 -0.1061728,0.0808 -0.2132809,0.161112 -0.3125,0.25 C 8.4783201,7.442683 8.3087904,7.626638 8.15625,7.8125 8.0486711,7.942755 7.9378561,8.077785 7.84375,8.21875 7.818661,8.25713 7.805304,8.30462 7.78125,8.34375 7.716487,8.446782 7.6510225,8.548267 7.59375,8.65625 7.4927417,8.850956 7.3880752,9.071951 7.3125,9.28125 7.30454,9.30306 7.288911,9.3218 7.28125,9.34375 7.2494249,9.4357 7.2454455,9.530581 7.21875,9.625 7.1884177,9.731618 7.1483606,9.828031 7.125,9.9375 7.0521214,10.279012 7,10.635705 7,11 l 0,2 0,68 0,2 c 0,2.781848 2.2181517,5 5,5 l 2,0 68,0 2,0 c 2.781848,0 5,-2.218152 5,-5 l 0,-2 0,-68 0,-2 C 89,10.635705 88.94788,10.279012 88.875,9.9375 88.83085,9.730607 88.78662,9.539842 88.71875,9.34375 88.71105,9.3218 88.69545,9.30306 88.6875,9.28125 88.62476,9.107511 88.549117,8.913801 88.46875,8.75 88.42717,8.6672 88.38971,8.580046 88.34375,8.5 88.28915,8.40279 88.216976,8.31165 88.15625,8.21875 88.06214,8.077785 87.951329,7.942755 87.84375,7.8125 87.700576,7.63805 87.540609,7.465502 87.375,7.3125 87.36383,7.3023 87.35502,7.29135 87.34375,7.28125 87.205364,7.155694 87.058659,7.046814 86.90625,6.9375 86.803679,6.86435 86.701932,6.784136 86.59375,6.71875 c -0.0074,-0.0045 -0.02384,0.0044 -0.03125,0 -0.232039,-0.138728 -0.462548,-0.274778 -0.71875,-0.375 0.301527,0.0968 0.596455,0.204138 0.875,0.34375 0.55709,0.279224 1.060053,0.665694 1.5,1.09375 0.219973,0.214028 0.409366,0.441865 0.59375,0.6875 0.184384,0.245635 0.355408,0.507743 0.5,0.78125 0.14012,0.265048 0.276135,0.524729 0.375,0.8125 0.01041,0.03078 0.02133,0.06274 0.03125,0.09375 0.09046,0.278085 0.1388,0.579404 0.1875,0.875 C 89.95865,11.3493 90,11.665279 90,12 l 0,2 0,68 0,2 c 0,3.324 -2.676,6 -6,6 l -72,0 z"
       id="path3615"
       style="opacity:0.2;fill:url(#radialGradient2874);fill-opacity:1;fill-rule:nonzero;stroke:none;display:inline" />
  </g>
  <g
     id="layer5"
     style="display:none">
    <rect
       width="66"
       height="66"
       rx="12"
       ry="12"
       x="15"
       y="15"
       clip-path="url(#clipPath3613)"
       id="rect3171"
       style="opacity:0.1;fill:url(#linearGradient3613);fill-opacity:1;fill-rule:nonzero;stroke:#ffffff;stroke-width:0.5;stroke-linecap:round;stroke-linejoin:miter;stroke-miterlimit:4;stroke-opacity:1;stroke-dasharray:none;stroke-dashoffset:0;filter:url(#filter3794)" />
  </g>
</svg>
