/* XPM */
static char * desktop_xpm[] = {
"48 48 406 2",
"  	c None",
". 	c #454847",
"+ 	c #4A4B4B",
"@ 	c #4A4A4A",
"# 	c #424444",
"$ 	c #4B4B4B",
"% 	c #292929",
"& 	c #2A2A2A",
"* 	c #282828",
"= 	c #4C4C4D",
"- 	c #3E3E3E",
"; 	c #424141",
"> 	c #404040",
", 	c #2D2D2D",
"' 	c #434343",
") 	c #403F3F",
"! 	c #335953",
"~ 	c #214842",
"{ 	c #214943",
"] 	c #214A43",
"^ 	c #214B43",
"/ 	c #224C43",
"( 	c #224D43",
"_ 	c #224E43",
": 	c #234E43",
"< 	c #234F44",
"[ 	c #235044",
"} 	c #235043",
"| 	c #245044",
"1 	c #376156",
"2 	c #11937F",
"3 	c #008772",
"4 	c #008872",
"5 	c #008A73",
"6 	c #018C73",
"7 	c #028E74",
"8 	c #029074",
"9 	c #039375",
"0 	c #049476",
"a 	c #049576",
"b 	c #059876",
"c 	c #059A77",
"d 	c #069B77",
"e 	c #079C77",
"f 	c #079E78",
"g 	c #089F78",
"h 	c #08A178",
"i 	c #08A279",
"j 	c #09A379",
"k 	c #09A479",
"l 	c #09A579",
"m 	c #0AA67A",
"n 	c #09A279",
"o 	c #08A078",
"p 	c #1CA986",
"q 	c #119E89",
"r 	c #00927C",
"s 	c #00937C",
"t 	c #01957D",
"u 	c #02987D",
"v 	c #039A7E",
"w 	c #049C7E",
"x 	c #049F7F",
"y 	c #05A17F",
"z 	c #06A380",
"A 	c #06A680",
"B 	c #07A781",
"C 	c #08A981",
"D 	c #08AB81",
"E 	c #09AD82",
"F 	c #0AAE82",
"G 	c #0AB082",
"H 	c #0BB183",
"I 	c #0BB283",
"J 	c #0BB483",
"K 	c #0CB583",
"L 	c #0CB584",
"M 	c #0DB784",
"N 	c #0CB784",
"O 	c #0DB884",
"P 	c #0DB684",
"Q 	c #0BB383",
"R 	c #0AAF82",
"S 	c #1DB890",
"T 	c #119D88",
"U 	c #07A680",
"V 	c #08A880",
"W 	c #08AA81",
"X 	c #09AC81",
"Y 	c #0AAD82",
"Z 	c #0BB182",
"` 	c #0CB383",
" .	c #0DB583",
"..	c #0EB984",
"+.	c #0EBA84",
"@.	c #0EBA85",
"#.	c #0FBB84",
"$.	c #0DB984",
"%.	c #0EB884",
"&.	c #0CB483",
"*.	c #0BB282",
"=.	c #1DBB8F",
"-.	c #109D87",
";.	c #02977D",
">.	c #06A480",
",.	c #08A881",
"'.	c #09AC82",
").	c #0CB684",
"!.	c #0DBA84",
"~.	c #0EBC84",
"{.	c #0FBD85",
"].	c #0FBE85",
"^.	c #10BE85",
"/.	c #0FBF85",
"(.	c #0FBF86",
"_.	c #0EBC85",
":.	c #0EBB85",
"<.	c #1DBE90",
"[.	c #0F9D87",
"}.	c #01947C",
"|.	c #09AB81",
"1.	c #0DB683",
"2.	c #0EBB84",
"3.	c #10C086",
"4.	c #10C085",
"5.	c #10C286",
"6.	c #11C286",
"7.	c #11C386",
"8.	c #10C186",
"9.	c #10BF86",
"0.	c #10BF85",
"a.	c #0FBC84",
"b.	c #1EC090",
"c.	c #0F9C87",
"d.	c #01937C",
"e.	c #01967D",
"f.	c #02997D",
"g.	c #039C7E",
"h.	c #049E7E",
"i.	c #0FBC85",
"j.	c #12C587",
"k.	c #12C686",
"l.	c #12C687",
"m.	c #13C787",
"n.	c #12C787",
"o.	c #12C487",
"p.	c #11C486",
"q.	c #10C185",
"r.	c #1EC390",
"s.	c #0E9C86",
"t.	c #049D7E",
"u.	c #05A07F",
"v.	c #06A37F",
"w.	c #07A580",
"x.	c #09AA81",
"y.	c #12C586",
"z.	c #13C687",
"A.	c #13C887",
"B.	c #13C988",
"C.	c #14CA88",
"D.	c #13CB88",
"E.	c #14CB88",
"F.	c #1EC690",
"G.	c #0D9B86",
"H.	c #02967D",
"I.	c #02997E",
"J.	c #06A27F",
"K.	c #06A580",
"L.	c #07A780",
"M.	c #13C987",
"N.	c #13CA87",
"O.	c #15CD88",
"P.	c #15CE89",
"Q.	c #15CE88",
"R.	c #16CF88",
"S.	c #15CF88",
"T.	c #14CD88",
"U.	c #14CC88",
"V.	c #1EC890",
"W.	c #0C9B86",
"X.	c #039B7E",
"Y.	c #13CA88",
"Z.	c #15CF89",
"`.	c #16D189",
" +	c #17D289",
".+	c #16D38A",
"++	c #17D28A",
"@+	c #16D289",
"#+	c #16D089",
"$+	c #1ECA90",
"%+	c #0C9C85",
"&+	c #03997E",
"*+	c #059F7F",
"=+	c #07A480",
"-+	c #08A780",
";+	c #0CB683",
">+	c #17D389",
",+	c #17D48A",
"'+	c #18D68A",
")+	c #18D78A",
"!+	c #18D58A",
"~+	c #17D58A",
"{+	c #16D389",
"]+	c #1FCC90",
"^+	c #0B9C86",
"/+	c #18D88A",
"(+	c #19D98B",
"_+	c #19DA8B",
":+	c #1ADB8B",
"<+	c #1ECE91",
"[+	c #0B9D85",
"}+	c #049E7F",
"|+	c #19D88B",
"1+	c #1ADD8B",
"2+	c #1BDE8C",
"3+	c #1ADF8C",
"4+	c #1BDF8C",
"5+	c #1ADD8C",
"6+	c #19DB8B",
"7+	c #1ECF90",
"8+	c #0A9D85",
"9+	c #06A17F",
"0+	c #08A781",
"a+	c #17D38A",
"b+	c #1ADE8C",
"c+	c #1BE08C",
"d+	c #1BE28D",
"e+	c #1CE38D",
"f+	c #1DE38D",
"g+	c #1CE18D",
"h+	c #1ADC8B",
"i+	c #1ED090",
"j+	c #049F7E",
"k+	c #0AB182",
"l+	c #0DB783",
"m+	c #1CE28D",
"n+	c #1DE48D",
"o+	c #1EE78E",
"p+	c #1DE78E",
"q+	c #1EE68E",
"r+	c #1DE58D",
"s+	c #18D88B",
"t+	c #1DD190",
"u+	c #099D84",
"v+	c #15CC88",
"w+	c #17D68A",
"x+	c #18D98A",
"y+	c #1CE18C",
"z+	c #1CE48D",
"A+	c #1EEA8E",
"B+	c #1FEB8F",
"C+	c #1EE88E",
"D+	c #19DC8B",
"E+	c #1FEB8E",
"F+	c #20ED8F",
"G+	c #1CE28C",
"H+	c #18D98B",
"I+	c #1CD28F",
"J+	c #089C84",
"K+	c #09AE82",
"L+	c #1BE18C",
"M+	c #1DE68D",
"N+	c #1FE98E",
"O+	c #1BD18F",
"P+	c #079C83",
"Q+	c #059E7E",
"R+	c #05A27F",
"S+	c #0BB082",
"T+	c #1CE58D",
"U+	c #1AD08E",
"V+	c #069B83",
"W+	c #12C486",
"X+	c #15D089",
"Y+	c #1CE08C",
"Z+	c #19CF8E",
"`+	c #059A82",
" @	c #1ADC8C",
".@	c #17CD8D",
"+@	c #049981",
"@@	c #07A880",
"#@	c #16D48A",
"$@	c #15CA8C",
"%@	c #039881",
"&@	c #08A281",
"*@	c #1BA081",
"=@	c #199D7D",
"-@	c #1AA07E",
";@	c #1BA27E",
">@	c #1BA57E",
",@	c #1CA77F",
"'@	c #1DA97F",
")@	c #1EAB80",
"!@	c #1EAE80",
"~@	c #20B081",
"{@	c #20B281",
"]@	c #21B482",
"^@	c #21B682",
"/@	c #22B883",
"(@	c #23BA83",
"_@	c #24BC84",
":@	c #24BE84",
"<@	c #25BF85",
"[@	c #25C185",
"}@	c #26C284",
"|@	c #26C385",
"1@	c #27C486",
"2@	c #26C285",
"3@	c #25C184",
"4@	c #28C589",
"5@	c #16CE89",
"6@	c #14C88C",
"7@	c #029781",
"8@	c #01947D",
"9@	c #0BA686",
"0@	c #144C40",
"a@	c #103F34",
"b@	c #104034",
"c@	c #114134",
"d@	c #104234",
"e@	c #114335",
"f@	c #124335",
"g@	c #114435",
"h@	c #114535",
"i@	c #124635",
"j@	c #124735",
"k@	c #124836",
"l@	c #134836",
"m@	c #134936",
"n@	c #134A36",
"o@	c #144B36",
"p@	c #144B37",
"q@	c #144C37",
"r@	c #1B6248",
"s@	c #17CF8D",
"t@	c #12C68A",
"u@	c #019680",
"v@	c #0BA485",
"w@	c #165144",
"x@	c #14463B",
"y@	c #14473B",
"z@	c #15483B",
"A@	c #15493B",
"B@	c #154A3B",
"C@	c #164B3C",
"D@	c #164C3C",
"E@	c #164D3C",
"F@	c #174E3C",
"G@	c #174F3C",
"H@	c #174F3D",
"I@	c #17503D",
"J@	c #18503D",
"K@	c #18513D",
"L@	c #18523D",
"M@	c #19523D",
"N@	c #18533D",
"O@	c #19533D",
"P@	c #1D674C",
"Q@	c #16CC8C",
"R@	c #11C186",
"S@	c #11C38A",
"T@	c #009680",
"U@	c #0AA284",
"V@	c #14453A",
"W@	c #1C654C",
"X@	c #15C98B",
"Y@	c #0FBF89",
"Z@	c #00967F",
"`@	c #09A084",
" #	c #155044",
".#	c #154B3C",
"+#	c #1C644C",
"@#	c #14C58A",
"##	c #0DBD88",
"$#	c #099F84",
"%#	c #154F44",
"&#	c #13443A",
"*#	c #164E3C",
"=#	c #17503C",
"-#	c #1B624B",
";#	c #13C28A",
">#	c #0BB986",
",#	c #1D7E6F",
"'#	c #00937D",
")#	c #13433A",
"!#	c #1B604B",
"~#	c #11BE89",
"{#	c #0AB584",
"]#	c #269071",
"^#	c #2B6B61",
"/#	c #21766A",
"(#	c #277D6F",
"_#	c #21423C",
":#	c #18342F",
"<#	c #19352F",
"[#	c #19362F",
"}#	c #19372F",
"|#	c #193730",
"1#	c #193830",
"2#	c #193930",
"3#	c #1A3930",
"4#	c #1A3A30",
"5#	c #254D42",
"6#	c #2C8F71",
"7#	c #288A6D",
"8#	c #28896D",
"9#	c #307763",
"                                                                                                ",
"                                                                                                ",
"                                                                                                ",
"                                                                                                ",
"                                                                                                ",
"                                                                                                ",
"                                                                                                ",
"                                                                                                ",
"      . + @ @ @ @ @ @ @ @ @ @ @ @ @ @ @ @ @ @ @ @ @ @ @ @ @ @ @ @ @ @ @ @ @ @ @ @ @ @ + #       ",
"      $ % & & & & & & & & & & & & & & & & & & & & & & & & & & & & & & & & & & & & & & * =       ",
"      - & & & & & & & & & & & & & & & & & & & & & & & & & & & & & & & & & & & & & & & & ;       ",
"      > , , , , , , , , , , , , , , , , , , , , , , , , , , , , , , , , , , , , , , , , '       ",
"      ) , , , , , , , , , , , , , , , , , , , , , , , , , , , , , , , , , , , , , , , , '       ",
"      ! ~ ~ ~ ~ ~ ~ ~ { { ] ^ ^ / / ( ( _ : < < < < [ [ [ } [ | | | [ } [ [ [ [ < < < : 1       ",
"      2 3 3 3 3 3 4 5 6 7 8 9 0 a b c d e f g h i j k k l m m m m m m m l l k j n h o f p       ",
"      q r r r r s t u v w x y z A B C D E F G H I J K L M N O O O O O N M P K J Q I G R S       ",
"      T r r r s t u v w x y z U V W X Y G Z ` K  .M O ..+.@.#.#.#.#.#.@.+.$.%.M P &.` *.=.      ",
"      -.r r r t ;.v w x y >.U ,.W '.R Z I K ).O !.@.~.{.].^./.(.(.(./.^.].{._.:.+.O M &.<.      ",
"      [.r r }.;.v w x y >.U C |.E G Z &.1.M +.2.{.^.3.4.5.6.7.7.7.7.7.6.8.8.9.0.{.a...O b.      ",
"      c.r d.e.f.g.h.y z U C |.Y G I K P ..2.i.0.3.8.7.j.k.l.m.m.n.n.m.l.k.o.p.5.q.].{.2.r.      ",
"      s.r t u v t.u.v.w.,.x.E G I K M .._.].4.8.p.y.z.A.B.C.D.E.E.E.D.C.B.A.m.l.p.6.3.].F.      ",
"      G.}.H.I.w x J.K.L.W '.R I K M ..i.].8.6.y.l.M.N.E.O.P.Q.R.R.R.S.P.T.U.D.M.m.y.7.8.V.      ",
"      W.t u X.h.u.z U C X F Z &.P .._.].8.7.j.m.Y.E.Q.Z.`.`. +.+.+.+++@+#+#+Q.U.C.A.l.7.$+      ",
"      %+H.&+w *+J.=+-+W Y G Q ;+O 2.].3.7.l.A.C.U.S.#+>+,+'+)+)+)+)+'+!+~+{+`.Z.T.E.A.l.]+      ",
"      ^+;.v t.u.z U C |.F H &.M +.{.4.6.y.A.C.T.Z.@+,+~+/+(+_+:+:+:+_+(+/+'+,+@+Z.O.E.A.<+      ",
"      [+u X.}+y >.L.C E R I K O 2.].8.p.l.M.U.Z.@+,+'+|+_+1+2+3+4+3+2+5+6+(+)+,+@+Z.T.Y.7+      ",
"      8+u X.h.9+=+0+W Y G ` ).$._.0.6.y.A.E.Q.#+a+'+(+6+b+c+d+e+f+e+g+c+b+h+(+)+,+`.Q.E.i+      ",
"      8+&+g.j+J.K.V D F k+&.l++.{.3.7.l.M.U.S.@+~+)+_+5+c+m+n+o+p+q+r+e+c+b+6+s+~+@+Z.U.t+      ",
"      u+I.w x J.K.V D F Z &.M +.{.3.7.l.B.v+#+>+w+x+:+b+y+z+o+A+B+A+C+r+m+4+D+x+'+.+#+T.t+      ",
"      u+I.w x J.K.V D F Z &.M +.].8.p.n.C.T.#+{+'+x+h+3+d+r+C+E+F+E+C+r+G+4+D+H+'+.+#+T.I+      ",
"      J+I.w x J.K.V |.K+H &.M +.{.3.7.l.M.U.S.@+~+|+:+b+L+e+M+C+N+C+M+z+y+2+:+|+!+>+#+v+O+      ",
"      P+u w Q+R+>.V W F S+J ).+.{.0.6.y.A.E.P.`.,+)+_+h+4+L+e+z+T+T+e+y+4+1+_+)+,+`.S.U.U+      ",
"      V+u X.h.y >.L.W Y S+` 1...a.^.8.W+n.C.T.X+@+~+)+_+h+2+c+Y+y+Y+4+2+h+_+/+~+@+#+T.C.Z+      ",
"      `+;.v t.u.v.U C X R *.K O +.{.3.7.l.A.E.Q.#+{+~+)+(+6+D+ @5+5+D+_+(+)+~+>+`.Q.U.M..@      ",
"      +@e.I.g.x R+K.@@D K+G Q ;+$._.].8.p.l.M.E.Q.X+@+#@~+)+/+x+x+x+/+)+w+,+{+#+Q.U.M.n.$@      ",
"      %@t u X.h.&@*@=@-@;@>@,@'@)@!@~@{@]@^@/@(@_@:@<@[@}@|@|@1@1@1@|@|@2@3@4@5@E.M.n.W+6@      ",
"      7@8@;.v t.9@0@a@b@c@c@d@e@f@g@h@i@j@k@l@m@n@n@n@o@p@p@q@q@q@q@q@p@p@o@r@s@M.l.p.6.t@      ",
"      u@s e.u X.v@w@x@y@z@z@A@B@C@D@D@E@F@G@H@I@J@K@L@L@L@L@M@N@N@N@O@L@N@L@P@Q@y.p.R@0.S@      ",
"      T@r }.;.v U@w@V@x@y@z@A@A@B@C@D@D@E@F@F@G@I@I@I@K@L@K@L@L@L@L@L@K@L@K@W@X@5.3./.{.Y@      ",
"      Z@r r t u `@ #V@V@x@y@z@A@A@B@.#C@D@E@E@F@G@H@I@H@I@K@J@J@J@J@J@K@I@I@+#@#0.{.2...##      ",
"      T@r r s e.$#%#&#V@V@x@y@z@A@A@B@.#C@C@D@E@E@*#F@G@H@G@G@=#=#=#G@G@H@G@-#;#:.+.O ).>#      ",
"      ,#'#r r d.P+%#)#&#V@V@x@y@z@z@A@B@B@.#C@D@D@E@E@E@*#*#*#F@F@F@F@E@*#*#!#~#O ;+&.{#]#      ",
"        ^#/#/#/#(#_#:#:#:#<#[#[#[#}#}#|#1#1#2#3#3#3#3#4#4#4#4#4#4#4#4#4#4#4#5#6#7#7#8#9#        ",
"                                                                                                ",
"                                                                                                ",
"                                                                                                ",
"                                                                                                ",
"                                                                                                "};
