/* XPM */
static char * desktop_xpm[] = {
"16 16 126 2",
"  	c None",
". 	c #5E6262",
"+ 	c #5F6365",
"@ 	c #606466",
"# 	c #5F6263",
"$ 	c #56595A",
"% 	c #040404",
"& 	c #000000",
"* 	c #4E4F4F",
"= 	c #4D4D4D",
"- 	c #676767",
"; 	c #089A76",
"> 	c #038974",
", 	c #049075",
"' 	c #079677",
") 	c #099B77",
"! 	c #0BA178",
"~ 	c #0DA579",
"{ 	c #0EA97A",
"] 	c #0FAC7B",
"^ 	c #10AD7B",
"/ 	c #0EAA7A",
"( 	c #10AE7A",
"_ 	c #636363",
": 	c #09AB84",
"< 	c #049E82",
"[ 	c #07A583",
"} 	c #0AAC85",
"| 	c #0DB386",
"1 	c #0FBA88",
"2 	c #11C089",
"3 	c #13C58A",
"4 	c #15C98B",
"5 	c #16CB8B",
"6 	c #12C489",
"7 	c #5F5F5F",
"8 	c #09AA83",
"9 	c #06A182",
"0 	c #09A984",
"a 	c #0CB186",
"b 	c #0EB887",
"c 	c #11BF89",
"d 	c #14C68A",
"e 	c #16CD8C",
"f 	c #18D28D",
"g 	c #19D58E",
"h 	c #13C589",
"i 	c #5B5B5B",
"j 	c #08A883",
"k 	c #06A383",
"l 	c #0AAB84",
"m 	c #10BB88",
"n 	c #13C38A",
"o 	c #1BD98F",
"p 	c #1DDF90",
"q 	c #1BDA8F",
"r 	c #19D38D",
"s 	c #575757",
"t 	c #07A682",
"u 	c #07A483",
"v 	c #0DB486",
"w 	c #10BC88",
"x 	c #13C48A",
"y 	c #16CC8C",
"z 	c #19D48E",
"A 	c #1CDD8F",
"B 	c #1FE591",
"C 	c #20E591",
"D 	c #12C389",
"E 	c #535353",
"F 	c #06A282",
"G 	c #38B59C",
"H 	c #3ABC9D",
"I 	c #3DC29E",
"J 	c #3FC9A0",
"K 	c #41CFA1",
"L 	c #44D5A2",
"M 	c #46DBA4",
"N 	c #49E1A5",
"O 	c #4AE4A5",
"P 	c #4AE5A5",
"Q 	c #11BF88",
"R 	c #4F4F4F",
"S 	c #059E81",
"T 	c #38B49B",
"U 	c #08483A",
"V 	c #094B3B",
"W 	c #0B4E3B",
"X 	c #0B513B",
"Y 	c #0D543C",
"Z 	c #0E573D",
"` 	c #0F583D",
" .	c #0F5A3D",
"..	c #45D6A3",
"+.	c #0FB987",
"@.	c #4B4B4B",
"#.	c #039981",
"$.	c #36B19A",
"%.	c #074739",
"&.	c #135444",
"*.	c #145745",
"=.	c #155945",
"-.	c #165B46",
";.	c #175E47",
">.	c #175F47",
",.	c #176047",
"'.	c #0D553C",
").	c #42D0A1",
"!.	c #0CB286",
"~.	c #444A4A",
"{.	c #0D8575",
"].	c #34AC99",
"^.	c #064338",
"/.	c #114F43",
"(.	c #125043",
"_.	c #125243",
":.	c #135344",
"<.	c #135544",
"[.	c #094B3A",
"}.	c #3BBD9D",
"|.	c #149979",
"1.	c #454D4A",
"2.	c #404745",
"3.	c #696969",
"4.	c #1F1F1F",
"5.	c #414947",
"                                ",
". + @ @ @ @ @ @ @ @ @ @ @ @ + # ",
"$ % & & & & & & & & & & & & % $ ",
"* & & & & & & & & & & & & & & * ",
"= = = = = = = = = = = = = = = = ",
"- ; > , ' ) ! ~ { ] ^ ^ ] / ( - ",
"_ : < [ } | 1 2 3 4 5 5 4 3 6 _ ",
"7 8 9 0 a b c d e f g g f e h 7 ",
"i j k l | m n 5 f o p p q r 3 i ",
"s t u } v w x y z A B C A g D s ",
"E F G H I J K L M N O P N M Q E ",
"R S T U V W X Y Z `  . .` ..+.R ",
"@.#.$.%.&.*.=.-.;.>.,.,.'.).!.@.",
"~.{.].^./.(._.:.&.<.<.<.[.}.|.1.",
"  2.3.4.4.4.4.4.4.4.4.4.4.3.5.  ",
"                                "};
