/* XPM */
static char * desktop_xpm[] = {
"24 24 260 2",
"  	c None",
". 	c #4C5B60",
"+ 	c #404344",
"@ 	c #3E3E3E",
"# 	c #404443",
"$ 	c #465E62",
"% 	c #2E3030",
"& 	c #5A5A5A",
"* 	c #737373",
"= 	c #747474",
"- 	c #5B5B5B",
"; 	c #2C302F",
"> 	c #181818",
", 	c #6C6C6C",
"' 	c #292929",
") 	c #050505",
"! 	c #4F4F4F",
"~ 	c #4C9CA8",
"{ 	c #4691BC",
"] 	c #0068A4",
"^ 	c #036BA7",
"/ 	c #076FAB",
"( 	c #0F72AB",
"_ 	c #1376AF",
": 	c #1A7CAE",
"< 	c #1F7CB1",
"[ 	c #2382B3",
"} 	c #2685B6",
"| 	c #2886B6",
"1 	c #2A89B6",
"2 	c #2A8CBA",
"3 	c #2C8CB8",
"4 	c #2D8CB9",
"5 	c #2E8CB8",
"6 	c #2B8BB7",
"7 	c #298AB7",
"8 	c #2884B4",
"9 	c #62A5C8",
"0 	c #4697A8",
"a 	c #4098CA",
"b 	c #0074B6",
"c 	c #0277BA",
"d 	c #0B7CBD",
"e 	c #127FBE",
"f 	c #1984C1",
"g 	c #1F89C5",
"h 	c #268CC6",
"i 	c #2B93C9",
"j 	c #2E96CC",
"k 	c #319CCD",
"l 	c #339DCF",
"m 	c #359FD1",
"n 	c #38A5D2",
"o 	c #3AA5D2",
"p 	c #38A3D0",
"q 	c #369ECE",
"r 	c #329CCE",
"s 	c #65B1D9",
"t 	c #4191A5",
"u 	c #3B95C9",
"v 	c #0176B9",
"w 	c #0A7BBC",
"x 	c #1184BF",
"y 	c #2088C4",
"z 	c #278DC7",
"A 	c #2C94CA",
"B 	c #309ACC",
"C 	c #3BA6D3",
"D 	c #3CABD4",
"E 	c #3FACD5",
"F 	c #3FAED7",
"G 	c #3FB1D7",
"H 	c #3FB0D5",
"I 	c #3DACD5",
"J 	c #3BA8D5",
"K 	c #66B8DA",
"L 	c #3A8EA6",
"M 	c #3593C9",
"N 	c #0678BA",
"O 	c #0E7EBE",
"P 	c #1683C2",
"Q 	c #1F87C3",
"R 	c #268FC6",
"S 	c #3CACD6",
"T 	c #44B3D8",
"U 	c #46B5DA",
"V 	c #47B6DB",
"W 	c #46BBDC",
"X 	c #44BADC",
"Y 	c #44B5DA",
"Z 	c #40B2D8",
"` 	c #65BADD",
" .	c #348BA4",
"..	c #3592C7",
"+.	c #1380BF",
"@.	c #1B86C3",
"#.	c #238BC7",
"$.	c #3097CC",
"%.	c #37A1CD",
"&.	c #43B2D7",
"*.	c #48BCDE",
"=.	c #4BC1DF",
"-.	c #4EC1DE",
";.	c #4EC3E0",
">.	c #4CC2E0",
",.	c #49C1DF",
"'.	c #48B7DC",
").	c #43B4D9",
"!.	c #66BFE0",
"~.	c #2E85A2",
"{.	c #3291C8",
"].	c #0D7DBD",
"^.	c #1F8BC3",
"/.	c #2790C7",
"(.	c #2E95CA",
"_.	c #50CAE4",
":.	c #51CEE5",
"<.	c #52CFE6",
"[.	c #51CBE5",
"}.	c #4FC5E3",
"|.	c #47BBDD",
"1.	c #65C2E1",
"2.	c #2881A2",
"3.	c #308FC6",
"4.	c #1083BE",
"5.	c #2189C5",
"6.	c #2B92C7",
"7.	c #2F9BCD",
"8.	c #54D1E8",
"9.	c #56DAEA",
"0.	c #57DFEB",
"a.	c #57DBEB",
"b.	c #55D6E9",
"c.	c #4FC9E3",
"d.	c #4BBEDF",
"e.	c #65C5E1",
"f.	c #237D9F",
"g.	c #2C8DC4",
"h.	c #1A85C2",
"i.	c #36A3D0",
"j.	c #40AFD8",
"k.	c #53D0E7",
"l.	c #5AE1EE",
"m.	c #5DE9EF",
"n.	c #5DE6EF",
"o.	c #58E0EC",
"p.	c #63C5E1",
"q.	c #1C7CA0",
"r.	c #278AC3",
"s.	c #5CE5EE",
"t.	c #5EECF2",
"u.	c #5DE8F1",
"v.	c #59E0ED",
"w.	c #5EC4E2",
"x.	c #17769D",
"y.	c #2188C3",
"z.	c #1180BF",
"A.	c #238AC5",
"B.	c #2B8FC9",
"C.	c #43B5DB",
"D.	c #49BDDF",
"E.	c #4EC4E2",
"F.	c #5CBFE0",
"G.	c #10709C",
"H.	c #1C84C0",
"I.	c #459ECD",
"J.	c #4CA3D0",
"K.	c #53A4D3",
"L.	c #58ABD6",
"M.	c #5CB1D8",
"N.	c #60B6DA",
"O.	c #65BCDD",
"P.	c #67C3E1",
"Q.	c #6CC5E2",
"R.	c #6FCAE5",
"S.	c #72D0E8",
"T.	c #73D6EB",
"U.	c #77DCEB",
"V.	c #78DDEC",
"W.	c #76D8EA",
"X.	c #75D2E9",
"Y.	c #6FD2E7",
"Z.	c #49BCDD",
"`.	c #55BBDD",
" +	c #0A6C9A",
".+	c #0C7CBC",
"++	c #449ACC",
"@+	c #0F4561",
"#+	c #124864",
"$+	c #154A65",
"%+	c #174C67",
"&+	c #1B4F67",
"*+	c #1D5369",
"=+	c #1F556B",
"-+	c #215A6D",
";+	c #225D6E",
">+	c #255F6F",
",+	c #266370",
"'+	c #276471",
")+	c #286572",
"!+	c #266372",
"~+	c #265F70",
"{+	c #6DC8E3",
"]+	c #4EB7DA",
"^+	c #036B9B",
"/+	c #0779BB",
"(+	c #3F9BCB",
"_+	c #0C4160",
":+	c #1D536F",
"<+	c #215671",
"[+	c #245772",
"}+	c #265B74",
"|+	c #285F76",
"1+	c #2A6076",
"2+	c #2C6278",
"3+	c #2D6679",
"4+	c #2E697A",
"5+	c #2F6A7B",
"6+	c #306B7C",
"7+	c #306D7C",
"8+	c #316B7B",
"9+	c #69C3E1",
"0+	c #45AFD7",
"a+	c #006396",
"b+	c #3D96C9",
"c+	c #0A4160",
"d+	c #1A4F6E",
"e+	c #1E5470",
"f+	c #215471",
"g+	c #245972",
"h+	c #285C74",
"i+	c #286178",
"j+	c #2A6378",
"k+	c #2C657A",
"l+	c #1F586B",
"m+	c #3DA7D3",
"n+	c #005D92",
"o+	c #0073AE",
"p+	c #0075B8",
"q+	c #3994C9",
"r+	c #19526F",
"s+	c #1C5170",
"t+	c #205672",
"u+	c #265974",
"v+	c #275C75",
"w+	c #295D75",
"x+	c #2A5E76",
"y+	c #2B6177",
"z+	c #2B6479",
"A+	c #2C637A",
"B+	c #1D556D",
"C+	c #62B4DA",
"D+	c #379FCF",
"E+	c #248DBE",
"F+	c #006294",
"G+	c #005B8A",
"H+	c #005A88",
"I+	c #287FAC",
"J+	c #002D44",
"K+	c #00598C",
"                                                ",
"                                                ",
". + @ @ @ @ @ @ @ @ @ @ @ @ @ @ @ @ @ @ @ @ # $ ",
"% & * = = = = = = = = = = = = = = = = = = * - ; ",
"> , ' ' ' ' ' ' ' ' ' ' ' ' ' ' ' ' ' ' ' ' , > ",
") ! ) ) ) ) ) ) ) ) ) ) ) ) ) ) ) ) ) ) ) ) ! ) ",
"~ { ] ] ^ / ( _ : < [ } | 1 2 3 4 5 3 6 7 8 9 ~ ",
"0 a b c d e f g h i j k l m n o o o n p q r s 0 ",
"t u v w x f y z A B l p C D E F G G H I J o K t ",
"L M N O P Q R A B q o S G T U V W W X Y Z E ` L ",
" ...d +.@.#.i $.%.o I &.U *.=.-.;.;.>.,.'.).!. .",
"~.{.].P ^./.(.r n S Z X ,.;._.:.<.<.[.}.>.|.1.~.",
"2.3.4.f 5.6.7.q C F Y *.;.[.8.9.0.a.b.<.c.d.e.2.",
"f.g.x h.#.i B i.J j.X =.c.k.9.l.m.n.o.b.[.;.p.f.",
"q.r.x h.#.i B m J Z V =.c.k.a.s.t.u.v.b.:.;.w.q.",
"x.y.z.f A.B.$.q C F C.D.E.:.b.0.v.o.9.k._.>.F.x.",
"G.H.O I.J.K.L.M.N.O.P.Q.R.S.T.U.V.V.W.X.Y.Z.`.G.",
" ++..+++@+#+$+%+&+*+=+-+;+>+,+'+)+!+'+~+{+U ]+ +",
"^+d /+(+_+:+<+[+}+|+1+2+3+4+5+6+7+6+8+;+9+G 0+^+",
"a+N c b+c+d+e+f+g+}+h+i+j+2+k+3+3+3+3+l+O.C m+a+",
"n+o+p+q+c+r+s+t+[+u+v+w+x+y+z+2+A+2+2+B+C+D+E+F+",
"  G+H+I+J+J+J+J+J+J+J+J+J+J+J+J+J+J+J+J+I+H+K+  ",
"                                                ",
"                                                "};
