/* XPM */
static char * desktop_xpm[] = {
"22 22 204 2",
"  	c None",
". 	c #34524E",
"+ 	c #304B46",
"@ 	c #314B47",
"# 	c #314C47",
"$ 	c #36524E",
"% 	c #385652",
"& 	c #2B2B2B",
"* 	c #2A2A2A",
"= 	c #385651",
"- 	c #395752",
"; 	c #2D2D2D",
"> 	c #3B5853",
", 	c #367066",
"' 	c #0F6B5D",
") 	c #106B5D",
"! 	c #106F5D",
"~ 	c #11715E",
"{ 	c #12745E",
"] 	c #13765F",
"^ 	c #147860",
"/ 	c #147A60",
"( 	c #157C60",
"_ 	c #157D60",
": 	c #167E60",
"< 	c #167E61",
"[ 	c #147B60",
"} 	c #377868",
"| 	c #338A7D",
"1 	c #00927C",
"2 	c #01957D",
"3 	c #039A7E",
"4 	c #049F7F",
"5 	c #06A380",
"6 	c #07A780",
"7 	c #09AB81",
"8 	c #0AAF82",
"9 	c #0BB283",
"0 	c #0CB583",
"a 	c #0DB784",
"b 	c #0EB984",
"c 	c #0EBA84",
"d 	c #0DB884",
"e 	c #0DB683",
"f 	c #0CB483",
"g 	c #0BB082",
"h 	c #399980",
"i 	c #30877A",
"j 	c #01947C",
"k 	c #03997E",
"l 	c #06A480",
"m 	c #08A981",
"n 	c #09AD82",
"o 	c #0CB683",
"p 	c #0FBD85",
"q 	c #10BF85",
"r 	c #10C186",
"s 	c #11C286",
"t 	c #10C085",
"u 	c #0FBE85",
"v 	c #0EBB84",
"w 	c #379E7E",
"x 	c #02987D",
"y 	c #049D7E",
"z 	c #06A37F",
"A 	c #08A881",
"B 	c #0AAD82",
"C 	c #0FBC85",
"D 	c #11C486",
"E 	c #12C787",
"F 	c #13C987",
"G 	c #13CA88",
"H 	c #14CA88",
"I 	c #13C887",
"J 	c #12C586",
"K 	c #399E80",
"L 	c #2C8679",
"M 	c #039B7E",
"N 	c #05A07F",
"O 	c #07A680",
"P 	c #09AC81",
"Q 	c #0BB182",
"R 	c #12C687",
"S 	c #15CE88",
"T 	c #16D189",
"U 	c #16D289",
"V 	c #15CF89",
"W 	c #14CC88",
"X 	c #11C386",
"Y 	c #36A17F",
"Z 	c #2C8578",
"` 	c #02977D",
" .	c #10C086",
"..	c #14CB88",
"+.	c #16D089",
"@.	c #17D48A",
"#.	c #18D88A",
"$.	c #19DA8B",
"%.	c #19DB8B",
"&.	c #19D98B",
"*.	c #18D68A",
"=.	c #15CD88",
"-.	c #36A480",
";.	c #2B8376",
">.	c #06A580",
",.	c #1BDF8C",
"'.	c #1CE28D",
").	c #1CE38D",
"!.	c #1BE08C",
"~.	c #1ADC8B",
"{.	c #18D78A",
"].	c #34A47E",
"^.	c #298475",
"/.	c #02997D",
"(.	c #059F7F",
"_.	c #07A580",
":.	c #12C486",
"<.	c #1ADD8B",
"[.	c #1EE98E",
"}.	c #1FEA8E",
"|.	c #1DE58D",
"1.	c #17D389",
"2.	c #33A57D",
"3.	c #278475",
"4.	c #1EE78E",
"5.	c #1DE48D",
"6.	c #14CD88",
"7.	c #33A47D",
"8.	c #258174",
"9.	c #049E7F",
"0.	c #08AA81",
"a.	c #1ADD8C",
"b.	c #1BE18C",
"c.	c #1BDE8C",
"d.	c #31A17C",
"e.	c #238072",
"f.	c #02967D",
"g.	c #049C7E",
"h.	c #07A280",
"i.	c #0BA982",
"j.	c #0DAF83",
"k.	c #0FB584",
"l.	c #11BB85",
"m.	c #13C086",
"n.	c #15C687",
"o.	c #16CB89",
"p.	c #18D08A",
"q.	c #1AD48A",
"r.	c #1BD68B",
"s.	c #1BD88B",
"t.	c #1CD98C",
"u.	c #1BD78B",
"v.	c #1AD58B",
"w.	c #17D089",
"x.	c #2F9F7A",
"y.	c #227F71",
"z.	c #108B71",
"A.	c #165747",
"B.	c #175948",
"C.	c #185C48",
"D.	c #185E48",
"E.	c #196049",
"F.	c #196149",
"G.	c #1A634A",
"H.	c #1A654A",
"I.	c #1A664B",
"J.	c #1B684B",
"K.	c #1B674B",
"L.	c #1BAC78",
"M.	c #2B9C77",
"N.	c #207F71",
"O.	c #0D846C",
"P.	c #14453A",
"Q.	c #14473B",
"R.	c #15493B",
"S.	c #154A3B",
"T.	c #164C3C",
"U.	c #164D3C",
"V.	c #174E3C",
"W.	c #17503D",
"X.	c #18513D",
"Y.	c #18523D",
"Z.	c #17A272",
"`.	c #289677",
" +	c #00937C",
".+	c #0C816B",
"++	c #13443A",
"@+	c #164B3C",
"#+	c #174F3C",
"$+	c #174F3D",
"%+	c #169D71",
"&+	c #1A685D",
"*+	c #116E5F",
"=+	c #176256",
"-+	c #124439",
";+	c #13443B",
">+	c #13463B",
",+	c #144A3C",
"'+	c #144B3C",
")+	c #164D3D",
"!+	c #164E3D",
"~+	c #1D7359",
"{+	c #178264",
"]+	c #1F7961",
"                                            ",
"                                            ",
"  . + + + + + + + + @ @ # # # # # # # @ $   ",
"% & * * * * * * * * * * * * * * * * * * & = ",
"- ; ; ; ; ; ; ; ; ; ; ; ; ; ; ; ; ; ; ; ; > ",
", ' ' ' ) ! ~ { ] ^ / ( _ : < < : _ ( [ ^ } ",
"| 1 1 2 3 4 5 6 7 8 9 0 a b c c b d e f g h ",
"i 1 j k 4 l m n 9 o b p q r s s r t u v a w ",
"i 1 x y z A B 9 a C t D E F G H F I J r p K ",
"L 2 M N O P Q a C r R H S T U U T V W I X Y ",
"Z ` y 5 m 8 0 v  .R ..+.@.#.$.%.&.*.U =.I -.",
";.x 4 >.7 Q a p X F V @.$.,.'.).!.~.{.T ..].",
"^./.(._.P 9 d u :...T {.<.).[.}.|.,.&.1.=.2.",
"3./.(._.P 9 d u D H +.{.<.'.4.[.5.,.&.1.6.7.",
"8.x 9.l 0.g a C s I S @.&.a.!.b.c.%.*.+...d.",
"e.f.g.h.i.j.k.l.m.n.o.p.q.r.s.t.u.v.w.W E x.",
"y.j 3 z.A.B.C.D.E.F.G.H.I.J.J.J.J.K.L.R s M.",
"N.1 ` O.P.Q.R.S.T.U.V.W.X.X.Y.Y.X.X.Z.t C `.",
"  1  +.+++P.Q.R.S.@+T.U.V.#+#+$+#+V.%+b o   ",
"  &+*+=+-+;+>+Q.Q.,+'+@+@+)+!+!+)+U.~+{+]+  ",
"                                            ",
"                                            "};
