/* XPM */
static char * desktop_xpm[] = {
"32 32 266 2",
"  	c None",
". 	c #324742",
"+ 	c #334B49",
"@ 	c #334746",
"# 	c #304643",
"$ 	c #304442",
"% 	c #414F4D",
"& 	c #373737",
"* 	c #333333",
"= 	c #3F4D4C",
"- 	c #313F3D",
"; 	c #3E3E3E",
"> 	c #2A2A2A",
", 	c #31413D",
"' 	c #31413F",
") 	c #404040",
"! 	c #2D2D2D",
"~ 	c #33443F",
"{ 	c #344545",
"] 	c #3A504C",
"^ 	c #273F3B",
"/ 	c #283F3B",
"( 	c #28403B",
"_ 	c #28413B",
": 	c #28423B",
"< 	c #29423B",
"[ 	c #29433B",
"} 	c #3B514C",
"| 	c #364745",
"1 	c #15927F",
"2 	c #008873",
"3 	c #018A74",
"4 	c #028D74",
"5 	c #039175",
"6 	c #049376",
"7 	c #059676",
"8 	c #069877",
"9 	c #079A77",
"0 	c #079D78",
"a 	c #089F78",
"b 	c #08A179",
"c 	c #09A379",
"d 	c #09A479",
"e 	c #0AA579",
"f 	c #0AA57A",
"g 	c #0AA67A",
"h 	c #0BA67A",
"i 	c #0AA479",
"j 	c #09A179",
"k 	c #1BA583",
"l 	c #149B86",
"m 	c #00927C",
"n 	c #01967D",
"o 	c #02997D",
"p 	c #049C7E",
"q 	c #059F7F",
"r 	c #06A37F",
"s 	c #07A580",
"t 	c #08A881",
"u 	c #09AB81",
"v 	c #0AAE82",
"w 	c #0AB082",
"x 	c #0BB283",
"y 	c #0CB483",
"z 	c #0CB583",
"A 	c #0DB784",
"B 	c #0DB884",
"C 	c #0DB984",
"D 	c #0EB984",
"E 	c #0CB683",
"F 	c #0BB082",
"G 	c #1DB48C",
"H 	c #139A86",
"I 	c #01957D",
"J 	c #05A07F",
"K 	c #06A380",
"L 	c #07A680",
"M 	c #08A981",
"N 	c #09AC81",
"O 	c #0AAF82",
"P 	c #0EBB84",
"Q 	c #0FBC85",
"R 	c #0FBD85",
"S 	c #0FBE85",
"T 	c #0FBF85",
"U 	c #1DB98C",
"V 	c #129A85",
"W 	c #01947C",
"X 	c #02987D",
"Y 	c #039C7E",
"Z 	c #07A780",
"` 	c #08AA81",
" .	c #09AD82",
"..	c #0CB383",
"+.	c #0DB684",
"@.	c #0EBC85",
"#.	c #10C085",
"$.	c #10C186",
"%.	c #11C386",
"&.	c #11C486",
"*.	c #11C286",
"=.	c #10C086",
"-.	c #0EBA84",
";.	c #1EBC8D",
">.	c #119985",
",.	c #00937C",
"'.	c #02977D",
").	c #039B7E",
"!.	c #049F7F",
"~.	c #06A27F",
"{.	c #0BB182",
"].	c #12C586",
"^.	c #12C787",
"/.	c #13C887",
"(.	c #13C987",
"_.	c #13CA88",
":.	c #12C587",
"<.	c #1EC08C",
"[.	c #109984",
"}.	c #049D7E",
"|.	c #05A17F",
"1.	c #12C486",
"2.	c #13CA87",
"3.	c #14CC88",
"4.	c #15CD88",
"5.	c #15CF89",
"6.	c #15CE88",
"7.	c #14CA88",
"8.	c #1FC38D",
"9.	c #0F9984",
"0.	c #0BB383",
"a.	c #14CB88",
"b.	c #16D189",
"c.	c #16D389",
"d.	c #17D48A",
"e.	c #17D58A",
"f.	c #17D389",
"g.	c #12C687",
"h.	c #1FC68D",
"i.	c #0F9A83",
"j.	c #06A580",
"k.	c #16D289",
"l.	c #18D88A",
"m.	c #19D98B",
"n.	c #19DA8B",
"o.	c #19DB8B",
"p.	c #18D68A",
"q.	c #16D089",
"r.	c #14CD88",
"s.	c #1FC88E",
"t.	c #0E9A84",
"u.	c #03997E",
"v.	c #049E7E",
"w.	c #05A27F",
"x.	c #10BF85",
"y.	c #1ADC8B",
"z.	c #1BDF8C",
"A.	c #1BE08C",
"B.	c #1ADD8B",
"C.	c #18D78A",
"D.	c #1FCB8D",
"E.	c #0D9B83",
"F.	c #039A7E",
"G.	c #049E7F",
"H.	c #1CE38D",
"I.	c #1DE58D",
"J.	c #1DE68D",
"K.	c #1CE48D",
"L.	c #1BE18C",
"M.	c #1ADD8C",
"N.	c #1ECC8D",
"O.	c #0C9B83",
"P.	c #1BDE8C",
"Q.	c #1DE78D",
"R.	c #1FEA8E",
"S.	c #1FEB8E",
"T.	c #1EE88E",
"U.	c #0B9A82",
"V.	c #1CE28D",
"W.	c #1EE78E",
"X.	c #1DCC8D",
"Y.	c #0A9A82",
"Z.	c #1BCB8B",
"`.	c #099881",
" +	c #1ADE8C",
".+	c #1AC98B",
"++	c #089780",
"@+	c #15D089",
"#+	c #19C78A",
"$+	c #06967F",
"%+	c #149275",
"&+	c #168167",
"*+	c #178468",
"=+	c #178769",
"-+	c #188A69",
";+	c #198C6A",
">+	c #1A8F6A",
",+	c #1B916B",
"'+	c #1B936C",
")+	c #1D966C",
"!+	c #1E986C",
"~+	c #1E9A6D",
"{+	c #1F9C6D",
"]+	c #209D6D",
"^+	c #209F6D",
"/+	c #20A06D",
"(+	c #209E6D",
"_+	c #20B47D",
":+	c #17C389",
"<+	c #05947F",
"[+	c #15735F",
"}+	c #14463B",
"|+	c #15473B",
"1+	c #15493B",
"2+	c #154A3B",
"3+	c #164B3C",
"4+	c #164C3C",
"5+	c #164D3C",
"6+	c #174E3C",
"7+	c #174F3D",
"8+	c #17503D",
"9+	c #18513D",
"0+	c #18523D",
"a+	c #19533D",
"b+	c #19543E",
"c+	c #18533D",
"d+	c #1D8B63",
"e+	c #13C787",
"f+	c #15C087",
"g+	c #04947E",
"h+	c #15715F",
"i+	c #14453A",
"j+	c #14473B",
"k+	c #15483B",
"l+	c #174F3C",
"m+	c #18503D",
"n+	c #1C8862",
"o+	c #12BC86",
"p+	c #03927E",
"q+	c #14705E",
"r+	c #14463A",
"s+	c #1B8661",
"t+	c #10B784",
"u+	c #138574",
"v+	c #136E5D",
"w+	c #13443A",
"x+	c #154B3C",
"y+	c #164E3C",
"z+	c #1A8361",
"A+	c #1C9E79",
"B+	c #1F6D61",
"C+	c #1E6B5F",
"D+	c #1E6B5E",
"E+	c #22544D",
"F+	c #173E37",
"G+	c #173F37",
"H+	c #174037",
"I+	c #184137",
"J+	c #184138",
"K+	c #1A4238",
"L+	c #1A4538",
"M+	c #1A4638",
"N+	c #255F4E",
"O+	c #237C62",
"P+	c #237D63",
"Q+	c #257D64",
"                                                                ",
"                                                                ",
"                                                                ",
"    . + + + + + @ # # # # # # # # # # # # # # # # # # # # $     ",
"  % & * * * * * * * * * * * * * * * * * * * * * * * * * * & =   ",
"- ; > > > > > > > > > > > > > > > > > > > > > > > > > > > > ; , ",
"' ) ! ! ! ! ! ! ! ! ! ! ! ! ! ! ! ! ! ! ! ! ! ! ! ! ! ! ! ! ) ~ ",
"{ ] ^ ^ ^ ^ ^ ^ ^ / ( ( _ _ : < < [ [ [ [ [ [ [ [ [ [ < < : } | ",
"  1 2 2 2 2 3 4 5 6 7 8 9 0 a b c d e f g h h g f f i c j a k   ",
"  l m m m n o p q r s t u v w x y z A B C D D C B A E y x F G   ",
"  H m m I o p J K L M N O x z A D P Q R S S T S R Q P D A z U   ",
"  V m W X Y q K Z `  .F ..+.D @.S #.$.%.&.&.&.&.%.*.=.S Q -.;.  ",
"  >.,.'.).!.~.L `  .{.y A -.R =.%.].^./.(._._.(./.^.:.%.$.S <.  ",
"  [.I o }.|.s M N F y A P S $.1.^.2.3.4.5.5.5.5.6.3.7./.:.*.8.  ",
"  9.'.).q K Z u O 0.A -.S *.:./.a.6.b.c.d.e.e.d.f.b.5.3.(.g.h.  ",
"  i.X p |.j.M  .{.z D R $.]./.3.5.k.e.l.m.n.o.n.l.p.f.q.r.(.s.  ",
"  t.u.v.w.L ` v x A P x.%.^.a.5.k.p.m.y.z.A.A.z.B.n.C.f.5.3.D.  ",
"  E.F.G.r Z u O ..B Q =.&./.r.b.e.m.B.A.H.I.J.K.L.M.n.p.k.4.N.  ",
"  O.F.!.K Z u w y B Q $.:.(.6.k.p.n.P.H.Q.R.S.T.H.z.o.C.c.6.N.  ",
"  U.F.!.r Z u w y B Q $.:.(.4.k.p.n.P.V.Q.R.S.W.H.z.o.C.c.6.X.  ",
"  Y.F.G.r Z u O ..B Q #.&./.3.b.e.m.y.A.H.I.I.H.L.M.m.e.b.4.Z.  ",
"  `.u.}.w.L ` v x +.P x.%.^.a.6.k.p.m.y. +z.A.z.y.n.p.f.5.a..+  ",
"  ++X p J j.M  .{.z C R $.&./.3.5.k.e.C.m.n.n.m.l.e.c.@+3.(.#+  ",
"  $+'.).!.%+&+*+=+-+;+>+,+'+)+!+~+{+]+^+/+/+/+/+/+(+_+3.(.:.:+  ",
"  <+I o }.[+}+|+1+2+3+4+5+6+7+8+9+0+0+a+a+b+b+a+a+c+d+e+].*.f+  ",
"  g+,.'.F.h+i+j+k+1+2+3+4+5+6+l+8+m+9+0+0+0+0+0+0+9+n+%.=.S o+  ",
"  p+m W X q+i+r+j+k+1+2+3+4+5+5+6+l+7+8+8+8+8+8+8+7+s+S @.D t+  ",
"  u+m m I v+w+i+r+j+k+1+2+x+3+4+4+5+y+6+6+6+6+6+6+6+z+D A z A+  ",
"    B+C+D+E+F+G+G+H+I+J+K+K+K+L+L+L+L+M+M+M+M+M+M+M+N+O+P+Q+    ",
"                                                                ",
"                                                                ",
"                                                                "};
